<svg xmlns="http://www.w3.org/2000/svg" width="170" height="60" viewBox="0 0 170 60" fill="none"><path d="M39.2784 42.1766C39.7219 42.279 40.1014 42.4252 40.4084 42.6154C40.7154 42.8006 40.9669 43.0249 41.1631 43.2833C41.3549 43.5417 41.4957 43.8245 41.5852 44.1415C41.6747 44.4535 41.7174 44.7899 41.7174 45.1458C41.7174 45.453 41.6747 45.7553 41.5895 46.0576C41.5042 46.3599 41.3805 46.6427 41.2142 46.906C41.0522 47.1692 40.8518 47.4082 40.6216 47.6227C40.3913 47.8372 40.1312 48.0079 39.8413 48.1395C39.2443 48.4028 38.3319 48.5344 37.1039 48.5344H33.5691V38.2712C33.5691 37.4862 33.4966 36.984 33.3516 36.7694C33.2323 36.6329 33.1001 36.5354 32.9508 36.4769C32.8016 36.4135 32.6225 36.3843 32.4093 36.3843H32V36.043H36.6945C37.219 36.043 37.688 36.0673 38.0931 36.121C38.4981 36.1746 38.8563 36.2575 39.1676 36.3696C39.4788 36.4818 39.7517 36.628 39.9862 36.8084C40.2208 36.9888 40.4254 37.2034 40.6002 37.452C40.8049 37.7397 40.9584 38.042 41.0693 38.354C41.1759 38.6661 41.2313 39.0123 41.2313 39.3926C41.2313 39.9874 41.0735 40.5335 40.7623 41.021C40.4425 41.5183 39.9521 41.8986 39.2784 42.1766ZM35.1084 47.6178C35.4154 47.7104 35.7181 47.7787 36.0123 47.8226C36.3108 47.8665 36.6093 47.886 36.912 47.886C37.3725 47.886 37.7861 47.8226 38.1528 47.6909C38.5195 47.5642 38.8265 47.3789 39.0823 47.1497C39.3381 46.9157 39.5343 46.6427 39.6707 46.3209C39.8072 46.004 39.8754 45.648 39.8754 45.2629C39.8754 45.0288 39.8498 44.7948 39.7944 44.5608C39.7389 44.3267 39.6579 44.0878 39.5428 43.8587C39.4319 43.6636 39.2998 43.493 39.1505 43.3516C39.0013 43.2102 38.8478 43.0786 38.6815 42.9567C38.5195 42.8592 38.3319 42.7714 38.1101 42.6885C37.8884 42.6105 37.6582 42.5374 37.4109 42.4837C37.1636 42.4252 36.9163 42.3813 36.6689 42.3521C36.4216 42.3228 36.1957 42.3082 35.9825 42.3082C35.9228 42.3082 35.8673 42.3082 35.8162 42.3082C35.765 42.3082 35.7181 42.3131 35.6755 42.318C35.8418 42.1814 36.0422 42.079 36.2809 42.0108C36.5154 41.9425 36.7585 41.884 37.0101 41.8353C37.2616 41.7914 37.5004 41.7426 37.7349 41.6987C37.9694 41.6549 38.1698 41.5866 38.3361 41.4988C38.5493 41.4208 38.7369 41.2989 38.8904 41.1332C39.0482 40.9723 39.1761 40.7919 39.2784 40.592C39.3808 40.3921 39.4575 40.1824 39.5087 39.9581C39.5599 39.7339 39.5854 39.5193 39.5854 39.3097C39.5854 38.9391 39.5215 38.6027 39.3893 38.2907C39.2571 37.9786 39.0567 37.7056 38.7881 37.4667C38.5237 37.1888 38.2082 36.9937 37.833 36.8767C37.4578 36.7597 37.0271 36.7012 36.5325 36.7012C36.2681 36.7012 36.0166 36.7109 35.7778 36.7353C35.539 36.7548 35.313 36.8036 35.1041 36.867V47.6178H35.1084Z" fill="#211C1B"></path><path d="M50.391 35.6953C51.8023 35.6953 53.0389 36.3292 54.0963 37.5919C54.6122 38.216 55.0003 38.9133 55.2561 39.6836C55.5119 40.4491 55.6441 41.3023 55.6441 42.2433C55.6441 43.1941 55.5119 44.0717 55.2518 44.8665C54.9917 45.6661 54.5909 46.3779 54.0494 47.0117C53.0261 48.2843 51.7597 48.9181 50.2588 48.9181C49.5126 48.9181 48.8262 48.7621 48.2036 48.4501C47.5768 48.138 47.0055 47.6748 46.4853 47.0605C45.4534 45.8367 44.9375 44.2326 44.9375 42.2433C44.9375 40.2541 45.5259 38.6207 46.707 37.3433C47.2272 36.7972 47.79 36.3877 48.3998 36.1097C49.001 35.8318 49.6661 35.6953 50.391 35.6953ZM50.2546 36.3682C49.696 36.3682 49.2014 36.5096 48.7707 36.7875C48.3401 37.0654 47.9734 37.4603 47.6792 37.9723C47.385 38.4842 47.159 39.0985 47.0055 39.825C46.852 40.5515 46.7752 41.356 46.7752 42.2482C46.7752 43.1453 46.852 43.9596 47.0097 44.6958C47.1632 45.432 47.3935 46.0659 47.692 46.5924C47.9904 47.119 48.3529 47.5286 48.7878 47.8162C49.2184 48.1039 49.7088 48.2502 50.2588 48.2502C50.7577 48.2502 51.2225 48.1429 51.6531 47.9235C52.0838 47.7041 52.459 47.3628 52.7745 46.8996C53.0943 46.4364 53.3459 45.8416 53.5292 45.1151C53.7126 44.3886 53.8021 43.5159 53.8021 42.5066C53.8021 41.5412 53.7254 40.6783 53.5676 39.9176C53.4098 39.157 53.1838 38.5135 52.8811 37.9869C52.5784 37.4603 52.2117 37.0605 51.7682 36.7875C51.3248 36.5047 50.8217 36.3682 50.2546 36.3682ZM50.2546 41.4876C50.3569 41.4876 50.4507 41.5071 50.536 41.551C50.6212 41.5949 50.6937 41.6534 50.7577 41.7314C50.8174 41.8094 50.8686 41.8972 50.9027 42.0044C50.9368 42.1068 50.9538 42.219 50.9538 42.336C50.9538 42.5505 50.8899 42.7358 50.7577 42.8918C50.6255 43.0478 50.4592 43.1258 50.2546 43.1258C50.165 43.1258 50.0755 43.1063 49.9902 43.0625C49.9049 43.0186 49.8282 42.9601 49.7642 42.8869C49.7003 42.8138 49.6491 42.7309 49.6107 42.6334C49.5723 42.5359 49.5553 42.4384 49.5553 42.336C49.5553 42.219 49.5723 42.1068 49.6107 42.0044C49.6491 41.902 49.7003 41.8094 49.7642 41.7314C49.8282 41.6534 49.9049 41.5949 49.9902 41.551C50.0712 41.5071 50.1608 41.4876 50.2546 41.4876Z" fill="#211C1B"></path><path d="M67.1998 38.9098C67.1784 38.6026 67.1401 38.3442 67.0846 38.1297C67.0292 37.92 66.9567 37.7396 66.8757 37.5934C66.7904 37.4471 66.7009 37.335 66.6071 37.2423C66.509 37.1546 66.4109 37.0766 66.3086 37.0083C66.04 36.8425 65.6818 36.7596 65.2384 36.7596H63.7247V48.51H62.1769V36.7645H60.8892C60.6035 36.7645 60.369 36.7791 60.1814 36.8035C59.9938 36.8279 59.8318 36.8718 59.6996 36.9303C59.5674 36.9937 59.4523 37.0766 59.367 37.1789C59.2775 37.2813 59.1922 37.413 59.1155 37.5739C59.0174 37.7396 58.9364 37.9298 58.8682 38.1394C58.7999 38.3491 58.7616 38.6075 58.7445 38.9098H58.446C58.4503 38.8123 58.4546 38.7148 58.4588 38.6221C58.4631 38.5246 58.4631 38.4369 58.4631 38.3491C58.4631 38.1346 58.4588 37.9347 58.4503 37.7494C58.4418 37.5641 58.4375 37.3935 58.4375 37.2326C58.4375 37.0229 58.4503 36.8425 58.4801 36.6865C58.51 36.5305 58.5739 36.3988 58.672 36.3013C58.7701 36.1989 58.9151 36.1258 59.1027 36.077C59.2903 36.0283 59.5418 36.0039 59.8531 36.0039H66.2702C66.5474 36.0039 66.7734 36.0283 66.9439 36.0819C67.1145 36.1355 67.2424 36.2087 67.3362 36.3062C67.4258 36.4037 67.4897 36.5256 67.5196 36.6767C67.5537 36.823 67.5665 36.9937 67.5665 37.1838C67.5665 37.3788 67.5579 37.5983 67.5409 37.8323C67.5238 38.0663 67.5153 38.3296 67.5153 38.6124C67.5153 38.6611 67.5153 38.7099 67.5153 38.7635C67.5153 38.8172 67.5196 38.8659 67.5238 38.9147H67.1998V38.9098Z" fill="#211C1B"></path><path d="M79.9956 48.5283C79.9189 48.5283 79.8293 48.5332 79.7227 48.5429C79.6161 48.5527 79.4968 48.5575 79.3688 48.5575C79.1599 48.5575 78.9297 48.5332 78.6781 48.4844C78.4265 48.4356 78.1707 48.3284 77.9149 48.1626C77.659 47.9968 77.4075 47.7579 77.1602 47.4459C76.9171 47.1338 76.6954 46.7097 76.5035 46.1733L73.7746 38.6989L72.2268 42.7311C72.3462 42.6141 72.5083 42.5312 72.7129 42.4776C72.9176 42.4239 73.1436 42.3996 73.3866 42.3996C73.6723 42.3996 73.9495 42.4337 74.2266 42.5019C74.5038 42.5702 74.7255 42.6628 74.8918 42.7799C74.5635 42.7945 74.2565 42.8481 73.9665 42.9456C73.6766 43.0431 73.4079 43.1699 73.1564 43.3211C72.9048 43.4722 72.6746 43.6526 72.4656 43.8525C72.2524 44.0524 72.0648 44.2572 71.8943 44.4717C71.7237 44.6814 71.5787 44.8959 71.4508 45.1056C71.3229 45.3152 71.2206 45.5151 71.1396 45.7004L70.0864 48.538H69.3359L74.0603 35.832H74.3673L78.1195 46.1831C78.2517 46.539 78.3796 46.8413 78.499 47.0851C78.6184 47.3289 78.7463 47.5336 78.8828 47.6897C79.0192 47.8457 79.177 47.9627 79.3518 48.0456C79.5266 48.1236 79.7441 48.1772 79.9999 48.2016V48.5283H79.9956Z" fill="#211C1B"></path><path d="M81.7266 36.1113H83.2317C83.4875 36.1113 83.7178 36.1259 83.9182 36.1551C84.1186 36.1844 84.3062 36.2429 84.4725 36.3307C84.6431 36.4184 84.8051 36.5354 84.9586 36.6817C85.1121 36.828 85.2741 37.0181 85.4404 37.2424L91.2222 45.4092V36.0625H91.9215V48.7295H91.623L84.5237 38.7149V48.5198H83.8244V38.7636C83.8244 37.9981 83.641 37.4179 83.2786 37.0328C82.9119 36.6476 82.4003 36.4526 81.7308 36.4526V36.1113H81.7266Z" fill="#211C1B"></path><path d="M98.9135 36.0518V46.3248C98.9135 46.6027 98.9178 46.8319 98.9263 47.022C98.9348 47.2073 98.9519 47.3633 98.9775 47.4852C99.0031 47.6071 99.0457 47.7046 99.1054 47.7777C99.1651 47.8509 99.2461 47.9094 99.357 47.9533C99.4636 48.041 99.5787 48.0947 99.7023 48.1239C99.826 48.1532 99.9539 48.1678 100.082 48.1678H100.453V48.5091H99.1736C98.8794 48.5091 98.6236 48.4798 98.4146 48.4262C98.2014 48.3726 98.0266 48.2751 97.8902 48.1385C97.7537 48.002 97.6514 47.8265 97.5832 47.6022C97.515 47.3779 97.4809 47.0951 97.4809 46.749V46.6222C97.4681 46.1151 97.4638 45.6373 97.4553 45.1888C97.451 44.7451 97.4467 44.3209 97.4425 43.9162C97.4382 43.5164 97.4382 43.1264 97.434 42.7558C97.4297 42.3852 97.4297 42.0196 97.4297 41.6539C97.4297 41.2492 97.4297 40.8445 97.434 40.435C97.4382 40.0254 97.4382 39.5964 97.4382 39.1478C97.4382 38.6944 97.4382 38.2166 97.4425 37.7095C97.4467 37.2024 97.4467 36.6515 97.4467 36.0469H98.9135V36.0518Z" fill="#211C1B"></path><path d="M112.467 39.9967C112.134 38.7583 111.67 37.8563 111.073 37.2907C110.476 36.7251 109.742 36.4423 108.868 36.4423C108.374 36.4423 107.9 36.5496 107.444 36.7641C106.988 36.9787 106.583 37.3248 106.229 37.8027C105.875 38.2805 105.589 38.9094 105.381 39.6798C105.167 40.455 105.061 41.4009 105.061 42.5174C105.061 43.0635 105.099 43.5803 105.176 44.063C105.253 44.5457 105.372 44.9943 105.525 45.4087C105.683 45.8183 105.879 46.1888 106.122 46.5106C106.365 46.8324 106.647 47.1006 106.975 47.3053C107.274 47.5442 107.602 47.7198 107.952 47.8319C108.301 47.9441 108.681 47.9977 109.094 47.9977C109.465 47.9977 109.802 47.9587 110.109 47.8758C110.416 47.7978 110.71 47.6564 110.992 47.4565C111.273 47.2566 111.55 46.9933 111.823 46.6666C112.096 46.34 112.386 45.9255 112.693 45.4282L112.957 45.594C112.689 46.1693 112.395 46.6617 112.079 47.0664C111.764 47.4711 111.418 47.8027 111.047 48.0611C110.676 48.3195 110.28 48.5096 109.858 48.6266C109.435 48.7485 108.979 48.807 108.497 48.807C106.702 48.807 105.321 48.0367 104.344 46.496C103.986 45.9353 103.713 45.3209 103.534 44.6481C103.355 43.9753 103.266 43.2488 103.266 42.4687C103.266 41.8348 103.33 41.2303 103.457 40.6549C103.585 40.0796 103.769 39.5433 103.999 39.046C104.234 38.5486 104.515 38.1001 104.843 37.6905C105.172 37.2858 105.538 36.9397 105.943 36.652C106.344 36.3643 106.783 36.1401 107.252 35.984C107.721 35.828 108.212 35.75 108.723 35.75C108.873 35.75 109.06 35.7695 109.278 35.8036C109.499 35.8426 109.73 35.8914 109.977 35.9597C110.224 36.0279 110.476 36.1108 110.732 36.2083C110.988 36.3058 111.231 36.418 111.452 36.5399C111.674 36.6618 111.874 36.7934 112.049 36.9348C112.224 37.0762 112.352 37.2273 112.433 37.3882C112.514 37.5491 112.569 37.7393 112.608 37.9636C112.642 38.1878 112.667 38.4219 112.676 38.6657C112.689 38.9094 112.689 39.1483 112.689 39.3775C112.685 39.6115 112.689 39.8163 112.693 39.9967H112.467Z" fill="#211C1B"></path><path d="M126.894 48.5283C126.817 48.5283 126.728 48.5332 126.621 48.5429C126.515 48.5527 126.395 48.5575 126.267 48.5575C126.058 48.5575 125.828 48.5332 125.577 48.4844C125.325 48.4356 125.069 48.3284 124.813 48.1626C124.557 47.9968 124.306 47.7579 124.059 47.4459C123.816 47.1338 123.594 46.7097 123.402 46.1733L120.673 38.6989L119.125 42.7311C119.245 42.6141 119.407 42.5312 119.611 42.4776C119.816 42.4239 120.042 42.3996 120.285 42.3996C120.571 42.3996 120.848 42.4337 121.125 42.5019C121.402 42.5702 121.624 42.6628 121.79 42.7799C121.462 42.7945 121.155 42.8481 120.865 42.9456C120.575 43.0431 120.306 43.1699 120.055 43.3211C119.803 43.4722 119.573 43.6526 119.364 43.8525C119.151 44.0524 118.963 44.2572 118.793 44.4717C118.622 44.6814 118.477 44.8959 118.349 45.1056C118.221 45.3152 118.119 45.5151 118.038 45.7004L116.985 48.538H116.234L120.959 35.832H121.266L125.018 46.1831C125.15 46.539 125.278 46.8413 125.397 47.0851C125.517 47.3289 125.645 47.5336 125.781 47.6897C125.918 47.8457 126.075 47.9627 126.25 48.0456C126.425 48.1236 126.642 48.1772 126.898 48.2016V48.5283H126.894Z" fill="#211C1B"></path><path d="M137.999 48.5101H130.665V38.2712C130.665 37.8665 130.648 37.5447 130.614 37.3106C130.58 37.0766 130.524 36.906 130.448 36.7987C130.337 36.6768 130.204 36.5842 130.055 36.5159C129.906 36.4525 129.731 36.4184 129.527 36.4184H129.117V36.043H131.219C131.386 36.043 131.526 36.0868 131.637 36.1697C131.748 36.2575 131.842 36.3696 131.91 36.5062C131.978 36.6427 132.034 36.7987 132.072 36.9742C132.11 37.1497 132.136 37.3253 132.153 37.5105C132.17 37.6909 132.179 37.8665 132.179 38.042C132.179 38.2126 132.179 38.3589 132.179 38.4857V46.3209C132.179 46.5403 132.187 46.7304 132.204 46.8865C132.221 47.0425 132.247 47.1741 132.285 47.2716C132.324 47.374 132.371 47.452 132.426 47.5057C132.481 47.5593 132.55 47.6032 132.622 47.6276C132.682 47.6714 132.81 47.6958 133.01 47.7007C133.211 47.7056 133.483 47.7104 133.842 47.7104H138.003V48.5101H137.999Z" fill="#211C1B"></path><path d="M59.6513 26.8007C60.389 26.8105 61.1821 26.6106 61.9496 26.4009C62.2821 26.3083 62.8748 26.1425 63.2117 26.0499C64.0516 25.811 64.8234 25.6062 65.6378 25.3673C66.3456 25.1625 67.0619 24.9626 67.7186 24.6067C68.695 24.0752 69.4966 23.2854 70.294 22.4711C70.8483 21.9056 71.3983 21.34 71.8545 20.672C72.9845 19.0192 73.526 17.0153 73.914 14.9919C74.9416 15.1674 75.9223 15.026 76.9584 14.87C77.227 14.831 77.4018 14.7822 77.7131 14.7529C79.1458 14.6213 80.0838 14.6164 81.6444 14.831C83.7763 15.1284 86.0703 15.5964 88.3558 16.1571C89.6648 16.4789 91.3831 16.9275 92.7944 17.3029C94.7814 17.8344 96.811 18.4341 98.7681 19.0874C98.4057 19.141 97.9282 19.2288 97.587 19.2922C97.2673 19.3556 96.9091 19.419 96.6533 19.4531C95.5873 19.5896 94.5981 19.731 93.5577 19.9114C93.5321 19.8968 93.4937 19.8919 93.4767 19.8578V19.8529C93.4767 19.8529 93.4767 19.8578 93.4724 19.8578C93.191 19.6969 92.9053 19.5701 92.6026 19.4677C92.6026 19.4628 92.6068 19.458 92.6068 19.4531C92.1975 19.2239 91.9289 18.8631 91.6432 18.4682C91.5366 18.3219 91.4215 18.1464 91.2978 18.0099C90.735 17.3907 89.9973 17.0396 89.2853 16.7812C88.6798 16.5618 88.1553 16.3912 87.6138 16.7861C87.1704 17.1079 87.1192 17.7125 87.2343 18.2439C87.277 18.4438 87.4006 18.6145 87.5243 18.7315C87.6479 18.8485 87.7801 18.9021 87.9166 18.946C88.7139 19.2142 89.5241 19.2971 90.3427 19.3751C91.0846 19.4433 91.8138 19.5214 92.5258 19.731C92.7603 19.7993 92.9437 19.887 93.1569 19.9894C91.4215 20.3063 89.7031 20.6915 87.9933 21.1596C87.8483 20.9548 87.6735 20.828 87.4731 20.711C86.7525 19.5409 85.8486 18.5023 84.6206 18.0489C83.4821 17.6296 82.2456 17.7076 81.1199 18.1903C81.0091 18.2391 80.8854 18.3171 80.8087 18.4341C80.7788 18.478 80.7533 18.5511 80.7362 18.6096C80.7362 18.6145 80.7319 18.6194 80.7319 18.6242C80.6765 18.9753 80.6722 19.3068 80.7575 19.653C81.0176 20.6915 81.7979 20.6135 82.4801 20.5452C83.8957 20.399 85.0939 20.555 86.4583 20.7208C86.744 20.7549 87.0681 20.8232 87.3452 20.945C87.503 21.0133 87.6138 21.1059 87.7375 21.2278C87.6224 21.2571 87.5158 21.2912 87.4006 21.3253C86.1812 21.6715 84.9702 22.0567 83.7678 22.4809C83.7678 22.4809 83.7636 22.4809 83.7593 22.4858C83.5504 22.5491 83.3542 22.6369 83.1368 22.6418C82.7957 22.6564 82.4844 22.5296 82.1646 22.4126C82.0623 22.3736 81.9557 22.3297 81.8533 22.2956C80.8769 21.9884 79.8408 21.9982 78.9198 22.4711C77.9988 22.9489 77.3635 23.7583 77.0053 24.8163C76.9541 24.9675 76.984 25.1137 77.0948 25.2259C77.8112 25.928 78.7322 26.1035 79.6532 25.8597C80.5571 25.6208 81.38 24.9772 82.0879 24.3531C82.365 24.1094 82.5313 23.9192 82.7488 23.69C83.1154 23.3049 83.431 23.0123 83.8531 22.7344C84.983 22.3395 86.1257 21.9689 87.277 21.6423C87.213 21.9738 87.1491 22.3102 87.0894 22.6418C86.9657 22.7393 86.8847 22.7588 86.7312 22.7783C86.6417 22.7881 86.5521 22.7978 86.4413 22.8319C85.3455 23.1732 84.4671 24.0265 83.6399 24.8797C83.4736 25.0504 83.3414 25.2015 83.2434 25.3965C83.1453 25.5916 83.1112 25.8695 83.0941 26.045C83.0472 26.6593 83.1709 27.2249 83.5717 27.5662C83.7508 27.7222 83.9128 27.732 84.0663 27.7515C84.9105 27.849 85.6098 27.5467 86.2238 26.9372C86.373 26.791 86.4498 26.6447 86.5393 26.4789C86.6459 26.2742 86.6758 26.0889 86.7312 25.8744C86.744 25.8207 86.7525 25.7768 86.7611 25.7232C86.9103 24.9821 87.0339 24.2849 87.1704 23.5243C87.213 23.2902 87.2855 22.8758 87.3324 22.6369C87.4049 22.2517 87.4646 21.9348 87.5371 21.5691C87.6863 21.5301 87.8313 21.4862 87.9805 21.4472C89.6903 20.9792 91.4129 20.5891 93.1483 20.2722C93.1228 20.4038 93.1014 20.5257 93.0716 20.6623C93.0631 20.7061 93.046 20.7793 93.0375 20.828C92.8456 21.1206 92.513 21.2766 92.2359 21.4277C92.0696 21.5155 91.8905 21.6179 91.7583 21.7203C91.4726 21.9397 91.204 22.0762 90.9013 22.2273C90.7734 22.2907 90.6582 22.3444 90.5389 22.4126C90.2788 22.5638 90.0357 22.7052 89.7884 22.9051C89.5283 23.1147 89.2725 23.3439 89.1574 23.7047C89.0678 23.9728 89.0763 24.2264 89.1105 24.5238C89.136 24.7334 89.1488 24.9577 89.2554 25.1771C89.6392 25.9524 90.3768 26.1718 91.1017 26.0255C91.3405 25.9767 91.4769 25.8939 91.6261 25.7573C91.8734 25.5331 91.9758 25.26 92.0909 24.948C92.5727 23.6413 92.9565 22.3005 93.2592 20.9255C93.2763 20.8817 93.2805 20.8719 93.2933 20.8183C93.3061 20.7646 93.2933 20.7939 93.3104 20.7013C93.3274 20.6086 93.3871 20.3551 93.4084 20.2283C93.4639 20.2137 93.5108 20.2088 93.5619 20.1991C94.6151 20.0138 95.6086 19.8724 96.6916 19.7359C96.9603 19.7018 97.3056 19.6384 97.6425 19.575C98.1669 19.4775 98.8278 19.3605 99.3864 19.3117C99.6806 19.4092 99.9663 19.5116 100.26 19.614C100.892 19.8383 101.612 20.1016 102.222 20.3356C102.896 20.594 103.659 20.9012 104.281 21.1596C107.411 22.4663 110.562 24.0606 112.677 27.1079C112.801 27.2834 112.997 27.3078 113.154 27.181C113.312 27.0494 113.359 26.8007 113.231 26.6155C111.04 23.4316 107.778 21.7642 104.529 20.399C103.898 20.1357 103.113 19.8236 102.456 19.5701C102.363 19.536 102.23 19.4823 102.132 19.4482C101.604 18.7022 101.088 17.9416 100.572 17.181C100.567 17.1713 100.559 17.1664 100.555 17.1567C100.593 16.7032 100.64 16.2498 100.691 15.7963C100.691 15.7963 100.691 15.8012 100.691 15.7915C100.708 15.6111 100.747 15.2941 100.764 15.1332C100.84 14.4214 100.926 13.6803 100.981 13.0075C101.037 12.32 101.079 11.7934 101.007 11.1206C100.99 10.945 100.964 10.7598 100.853 10.5794C100.597 10.1454 100.073 10.0138 99.6593 10.2088C99.2457 10.4038 98.9515 10.8524 98.815 11.2668C98.5422 12.0957 98.5422 12.7344 98.8449 13.534C98.9941 13.9338 99.3523 14.28 99.6252 14.6164C99.9151 14.9772 100.273 15.3429 100.457 15.8012C100.418 16.1523 100.384 16.4984 100.35 16.8495C99.8426 16.0986 99.331 15.3527 98.815 14.6164C98.8193 14.6164 98.8236 14.6213 98.8236 14.6213C98.7553 14.5238 98.6658 14.4019 98.6018 14.3141C98.5379 14.2264 98.4952 14.1679 98.4356 14.085C98.41 14.0508 98.3716 14.0021 98.3503 13.968C98.12 13.6413 97.9068 13.3293 97.7661 12.9489C97.6723 12.7052 97.6297 12.437 97.5785 12.1786C97.5572 12.0811 97.5359 11.9689 97.5146 11.8714C97.2587 10.6525 96.6447 9.42871 95.8985 8.58522C95.3954 8.01965 94.9477 7.75148 94.355 7.97089C93.9755 8.11228 93.8391 8.39995 93.7368 8.84851C93.5577 9.64324 93.7794 10.4575 94.2612 11.1401C94.6791 11.73 95.3101 12.1981 95.8815 12.6223C96.2226 12.8758 96.7044 13.1781 97.0327 13.3926C97.3611 13.6023 97.9495 13.9875 98.1286 14.124C98.3076 14.2605 98.2181 14.2215 98.2394 14.2508C98.9003 15.143 99.4759 16.0157 100.094 16.9129C99.5996 16.7617 99.1092 16.7373 98.6061 16.7373C98.1243 16.3375 97.7917 15.8597 97.5188 15.2551C97.489 15.1869 97.4762 15.1137 97.4378 15.0357C97.3014 14.7529 97.2843 14.514 97.0413 14.2703C96.6319 13.8704 96.1672 13.7876 95.5702 13.8509C95.3272 13.8753 94.9349 13.9436 94.662 14.163C94.4147 14.3629 94.1717 14.7676 94.2399 15.1674C94.3081 15.5867 94.6663 15.8939 94.9392 16.0645C95.8644 16.6301 96.7769 16.9372 97.8045 17.0006C97.9537 17.0104 98.0987 17.0006 98.2522 17.0055C98.3503 17.0055 98.4697 17.0055 98.5677 17.0055C99.2073 17.0104 99.8426 17.0104 100.41 17.3712C100.849 18.0148 101.284 18.6584 101.732 19.2971C101.309 19.141 100.934 19.0045 100.512 18.8534C98.0134 17.9709 95.5361 17.22 92.9693 16.5326C91.5323 16.1474 89.959 15.733 88.4922 15.377C88.2065 15.3088 87.9123 15.2356 87.6309 15.1723C87.0254 14.6359 86.5095 14.0118 85.9978 13.3634C85.9893 13.3536 85.9808 13.339 85.9722 13.3292C85.823 13.1342 85.6823 12.9489 85.5416 12.749C85.7249 11.7398 85.9381 10.6379 86.1129 9.653C86.2025 9.16055 86.2664 8.82413 86.2195 8.37069C86.1556 7.76611 85.887 7.32242 85.6311 6.81536C85.6183 6.79098 85.597 6.75197 85.5842 6.73247C85.4478 6.50819 85.3156 6.23515 85.1195 6.07913C84.885 5.89385 84.6376 5.75733 84.3562 5.89385C84.0748 6.03037 83.9298 6.22052 83.8232 6.62033C83.5887 7.4882 83.6996 8.45358 84.0919 9.27757C84.4671 10.0626 85.0001 10.6379 85.58 11.2132C85.5032 11.6374 85.4222 12.0616 85.3454 12.4858C84.9446 11.9494 84.5481 11.4229 84.062 10.9841C83.6612 10.6233 83.2092 10.3502 82.7658 10.0674C82.608 9.96504 82.4503 9.8724 82.2968 9.77001C82.2115 9.49697 82.1561 9.21906 82.1134 8.93627C82.1134 8.93627 82.1134 8.9314 82.1134 8.92652C82.0282 8.0684 82.0793 7.16153 82.139 6.31316C82.1987 5.44529 82.2541 4.47016 82.1518 3.67055C82.0836 3.15373 81.9685 2.7978 81.7425 2.47113C81.444 2.04207 81.1242 1.90068 80.685 1.95431C80.4804 1.97869 80.3397 2.05182 80.1691 2.24685C79.6105 2.87581 79.3718 3.60716 79.5125 4.5823C79.6276 5.34778 80.071 6.12301 80.5401 6.73734C80.5571 6.76172 80.604 6.82023 80.6296 6.84461C80.8599 7.1274 81.0645 7.38093 81.1711 7.76123C81.3118 8.23905 81.5719 8.64861 81.8789 9.00941C81.9045 9.19468 81.9386 9.37996 81.9813 9.56036C81.9301 9.52135 81.8704 9.48235 81.8235 9.44334C81.5506 9.22881 81.2905 9.00453 81.0645 8.73149C80.8812 8.51209 80.7405 8.28293 80.5998 8.0294C80.5998 8.0294 80.5955 8.02452 80.5955 8.01965C80.3482 7.53208 80.1435 7.01038 79.9516 6.49844C79.683 5.78171 79.376 5.02598 78.971 4.4214C78.519 3.74368 78.1395 3.1586 77.7643 2.44188C77.6321 2.18834 77.5084 1.88605 77.3891 1.60814C77.3763 1.57401 77.3549 1.5155 77.3336 1.48137C76.9456 0.754896 76.3657 0.423351 75.6878 0.125935C75.5471 0.0625512 75.3978 -0.0154596 75.2401 0.0284215C74.9501 0.106432 74.7753 0.296583 74.6346 0.623253C74.4299 1.11082 74.2125 1.47162 74.221 2.10058C74.2295 2.98795 74.6644 3.78269 75.3125 4.36289C75.7261 4.73344 76.2932 5.05036 76.7836 5.3234C76.9499 5.41604 77.1332 5.51355 77.2995 5.61106C78.4422 6.28878 79.4826 7.13227 80.3951 8.17079C80.5401 8.43408 80.6978 8.68274 80.8854 8.90702C81.0389 9.09229 81.201 9.25319 81.3758 9.40921C81.2351 9.41409 81.0986 9.42384 80.9579 9.43847C80.9409 9.43847 80.911 9.44334 80.8854 9.44822C80.8599 9.44822 80.83 9.45797 80.8044 9.45797C80.4036 9.35558 79.99 9.04841 79.6617 8.81926C79.457 8.67786 79.2907 8.55597 79.1117 8.46821C78.9368 8.38044 78.8601 8.32681 78.7066 8.2293C78.6341 8.18542 78.5957 8.14641 78.5147 8.10741C78.1139 7.89775 77.7813 7.74173 77.3166 7.63447C76.8944 7.53695 76.3188 7.41019 75.9393 7.80512C75.5215 8.23905 75.4618 8.89727 75.773 9.47747C76.0417 9.97966 76.4467 10.2527 76.9925 10.5014C77.2611 10.6233 77.76 10.7695 78.1352 10.6915C78.4039 10.6379 78.7492 10.4721 79.0051 10.3063C79.0861 10.2527 79.1884 10.2186 79.278 10.1503C79.6233 9.8919 80.4889 9.72125 80.749 9.72613C81.0091 9.73588 80.7277 9.72125 80.8129 9.72613C80.9281 9.73101 80.9025 9.72613 80.9963 9.70663C81.2308 9.68713 81.4781 9.6725 81.7212 9.68225C81.8576 9.78464 81.994 9.87728 82.139 9.96991C82.3053 10.0821 82.4759 10.1844 82.6464 10.2917C83.0771 10.5696 83.5162 10.8378 83.9085 11.184C84.3434 11.574 84.6973 12.0421 85.0598 12.515C84.74 12.5296 84.4628 12.632 84.1686 12.7685C84.1686 12.7685 84.1729 12.7734 84.1686 12.7734H84.1644C84.1644 12.7734 84.1686 12.7685 84.1601 12.7685C84.1558 12.7685 84.1558 12.7734 84.143 12.7734C83.7934 12.7978 83.4608 12.3834 83.2135 12.1445C83.0557 11.9933 82.8639 11.7983 82.6933 11.6959C82.5611 11.613 82.4673 11.5545 82.3522 11.4814C82.0623 11.301 81.7808 11.1157 81.4611 11.0328C81.1455 10.9499 80.7788 10.9743 80.4974 11.1011C80.2672 11.2035 80.071 11.301 80.0156 11.5838C79.9346 12.0226 80.0966 12.3005 80.4718 12.5881C81.363 13.2756 82.5228 13.5389 83.6015 13.261C83.8318 13.2025 84.0151 13.1147 84.2241 13.0221C84.2326 13.0172 84.2454 13.0172 84.2454 13.0123C84.2496 13.0075 84.2454 13.0123 84.2454 13.0075V13.0123C84.5865 12.8563 84.8892 12.7539 85.2602 12.7978C85.273 12.8124 85.29 12.8368 85.2985 12.8514C85.4563 13.066 85.6098 13.2756 85.7718 13.4901C85.7804 13.4999 85.7889 13.5145 85.7974 13.5243C86.2025 14.0508 86.6502 14.5677 87.0809 15.0309C85.3753 14.6359 83.3798 14.2508 81.7169 14.0265C80.1947 13.8217 79.0605 13.7973 77.6364 13.9485C77.3336 13.9826 77.129 14.0265 76.8646 14.0655C75.901 14.2069 74.9842 14.358 74.0249 14.1825C74.0888 12.9782 73.9268 11.6374 73.4706 10.5745C73.0442 9.59449 72.524 8.89727 71.9185 8.09278C70.6223 6.37654 69.1129 4.67006 67.4286 3.49502C65.625 2.25173 63.5059 1.60814 61.5104 1.94456C60.487 2.11521 60.0052 2.46626 59.4467 3.1781C59.0544 3.6803 59.0629 4.12398 58.9307 4.63593C58.692 5.55256 58.6962 6.29366 59.1866 7.04939C59.2207 7.10302 59.2804 7.14202 59.3187 7.18103C59.3571 7.22491 59.4168 7.26879 59.4381 7.31267C59.485 7.39556 59.4765 7.48332 59.4552 7.56133C59.4381 7.63934 59.4168 7.6881 59.3784 7.75148C59.2804 7.92213 59.1524 8.0489 59.0203 8.19029C58.9691 8.2488 58.9094 8.30243 58.854 8.36582C57.869 9.52135 57.5364 11.1352 57.9714 12.6662C58.0438 12.9197 58.1504 13.1684 58.2357 13.3878C58.4319 13.8997 58.628 14.358 58.5896 14.9041C58.5811 15.0016 58.5683 15.0455 58.5342 15.1235C58.402 15.4404 58.2016 15.6159 57.9714 15.8597C57.8349 16.0011 57.6985 16.1181 57.5578 16.3034C56.7263 17.4248 56.6837 18.9314 57.1825 20.2576C57.2209 20.3648 57.2806 20.4916 57.3232 20.594C57.4767 20.9499 57.6345 21.2863 57.626 21.6861C57.626 21.73 57.6217 21.7544 57.6089 21.7934C57.5407 22.0469 57.4043 22.203 57.2636 22.4224C57.1527 22.593 57.012 22.7295 56.9224 22.9538C56.5344 23.9338 56.6496 24.9772 57.3616 25.8012C57.9415 26.4643 58.7772 26.7861 59.6513 26.8007ZM84.1942 12.8904C84.1942 12.8953 84.1985 12.9002 84.1985 12.9099C84.1985 12.9051 84.1985 12.9002 84.1942 12.8904ZM73.3256 13.3975C73.1422 13.1732 72.9546 12.9489 72.7627 12.7344C72.5751 12.4663 72.3875 12.1981 72.1957 11.9348C71.6286 11.145 71.0657 10.3551 70.456 9.60424C70.149 9.22881 69.842 8.85339 69.5009 8.51209C69.164 8.17079 68.7718 7.888 68.371 7.65397C67.9701 7.41506 67.5523 7.24441 67.1472 7.03476C66.7379 6.82511 66.3499 6.59595 65.9619 6.34242C66.3328 6.6252 66.7166 6.88849 67.1088 7.1274C67.5011 7.36631 67.9105 7.57108 68.2857 7.82949C68.6652 8.09278 69.0105 8.37557 69.3218 8.73637C69.6331 9.09229 69.9102 9.48235 70.1874 9.8724C70.4858 10.2868 70.763 10.7208 71.0444 11.1498C71.0401 11.1498 71.0359 11.145 71.0316 11.1401C70.4816 10.7208 69.9273 10.3112 69.3431 9.96016C68.759 9.60911 68.1578 9.27269 67.5352 9.02891C66.2902 8.53647 64.9897 8.28781 63.6935 8.0879C62.5124 7.9075 61.3398 7.80512 60.1545 7.69785C60.1971 7.39556 60.163 7.11277 60.018 6.85924C59.9413 6.72759 59.8603 6.66908 59.7707 6.5667C59.7366 6.52769 59.7068 6.52281 59.6769 6.47406C59.387 5.97186 59.4424 5.42091 59.6087 4.83583C59.7238 4.4409 59.6854 4.0411 60.0138 3.65592C60.47 3.1196 60.7855 2.88069 61.6127 2.74417C63.459 2.44675 65.3862 3.03671 67.0534 4.19712C68.6652 5.31852 70.1319 6.99088 71.3685 8.6291C71.9526 9.40434 72.4174 10.0235 72.8224 10.9353C73.1508 11.6715 73.2701 12.5638 73.3256 13.3975ZM66.2646 13.7681C65.0281 13.8461 63.7958 13.968 62.5678 14.1532C61.4677 14.319 60.3762 14.5384 59.3017 14.8553C59.3059 14.2117 59.1013 13.6413 58.8796 13.066C58.79 12.8368 58.7005 12.6272 58.6365 12.4029C58.2954 11.1645 58.564 9.8919 59.3443 8.9509C59.3912 8.89239 59.4424 8.84851 59.4936 8.79C59.6684 8.60473 59.8347 8.42433 59.9711 8.19517C60.0436 8.07328 60.099 7.91726 60.1374 7.77099C60.1417 7.75148 60.1459 7.73198 60.1502 7.71248C61.3228 7.88313 62.5039 8.04402 63.6636 8.28293C64.9385 8.54622 66.2092 8.84851 67.4073 9.40434C68.6055 9.96016 69.6885 10.75 70.7204 11.6276C71.2363 12.0665 71.701 12.5589 72.1658 13.066C72.2639 13.1732 72.3492 13.2902 72.4472 13.4024C72.1146 13.2366 71.8545 13.1098 71.5006 12.9392C71.1723 12.7783 70.699 12.5491 70.3664 12.3882C70.1447 12.281 69.9912 12.1981 69.7908 12.0957C69.5904 11.9933 69.3985 11.8909 69.1981 11.808C68.3965 11.4716 67.5736 11.2522 66.7336 11.1157C65.8979 10.9792 65.0664 10.9158 64.2265 10.8427C65.0537 10.9792 65.8851 11.1108 66.6995 11.3156C67.5139 11.5204 68.2942 11.7983 69.0574 12.1835C69.2493 12.281 69.4156 12.3882 69.6032 12.5053C69.7951 12.6223 69.9529 12.7247 70.1703 12.8514C70.4986 13.0416 70.9421 13.3 71.2747 13.495C71.4921 13.6218 71.6328 13.7047 71.8375 13.8266C71.2192 13.7729 70.5967 13.7291 69.9784 13.7096C68.7419 13.6705 67.5011 13.69 66.2646 13.7681ZM71.8716 15.9231C71.603 16.1864 71.3429 16.4302 71.0487 16.6593C70.7545 16.8885 70.4773 17.0738 70.1533 17.2639C68.8613 18.0196 67.5779 18.5608 66.1964 19.2093C65.6762 19.4531 64.7893 19.8626 64.235 20.1162C63.8683 20.2868 63.5698 20.4331 63.2287 20.5794C62.8876 20.7256 62.5593 20.8573 62.2139 20.9694C61.5232 21.1986 60.8324 21.3936 60.1246 21.535C59.5319 21.6569 58.9435 21.7252 58.3423 21.7398C58.3466 21.1888 58.1718 20.7208 57.9671 20.2381C57.9202 20.1259 57.869 20.0235 57.8349 19.9212C57.4597 18.8826 57.4512 17.7369 58.0907 16.8495C58.2059 16.6935 58.3125 16.6057 58.4489 16.4643C58.7389 16.162 59.0203 15.8646 59.1951 15.4404C59.2463 15.3185 59.2761 15.1723 59.2974 15.0357C59.3059 14.987 59.3102 14.9285 59.3145 14.8748C60.3975 14.6116 61.4976 14.4555 62.5977 14.3531C63.8257 14.2361 65.0537 14.1825 66.2817 14.1727C67.5096 14.163 68.7376 14.2117 69.9614 14.3093C70.4432 14.3483 70.925 14.4068 71.4026 14.4653C71.3258 14.4848 71.2491 14.4994 71.1723 14.5189C70.375 14.7237 69.5776 14.9431 68.7888 15.1918C68 15.4404 67.2197 15.7086 66.4437 16.0011C65.6677 16.2937 64.9044 16.6155 64.154 16.9811C64.9215 16.6788 65.7018 16.4204 66.4906 16.1913C67.2794 15.967 68.0725 15.7622 68.8656 15.5818C69.6629 15.4014 70.456 15.2454 71.2576 15.1137C71.7693 15.0309 72.2767 14.9724 72.7883 14.9285C72.4899 15.2746 72.1914 15.6111 71.8716 15.9231ZM57.8434 25.2064C57.464 24.7432 57.255 23.9875 57.545 23.3536C57.6175 23.1927 57.707 23.0855 57.8179 22.9294C58.0097 22.6564 58.2016 22.3639 58.2954 22.0079C58.3125 21.9446 58.3253 21.8422 58.3338 21.769C58.3338 21.7642 58.3338 21.7593 58.3338 21.7593C58.9393 21.769 59.5319 21.7349 60.1331 21.6374C60.8537 21.5253 61.5487 21.3644 62.2566 21.1645C62.6105 21.0621 62.9388 20.9499 63.3012 20.8134C63.6594 20.6769 63.928 20.5599 64.3331 20.3941C64.9385 20.1503 65.7103 19.8334 66.3413 19.5701C66.9767 19.3117 67.7697 18.985 68.3496 18.7461C69.1214 18.4243 69.6928 18.1659 70.3878 17.8002C70.7331 17.6198 71.0444 17.4248 71.3685 17.2005C71.5134 17.103 71.6413 16.9909 71.7821 16.8836C71.3216 17.5418 70.8696 18.1757 70.3622 18.79C70.0765 19.141 69.8036 19.4482 69.471 19.7749C69.1427 20.1064 68.8741 20.3015 68.4605 20.6281C67.8465 21.1157 67.0534 21.73 66.4309 22.2225C66.9852 21.8519 68.064 21.1254 68.4989 20.8329C68.9295 20.5404 68.8826 20.5745 69.0873 20.438C69.292 20.2966 69.2621 20.3112 69.3772 20.2283C69.4881 20.1454 69.5691 20.0723 69.6373 20.0138C69.9912 19.7066 70.3025 19.4043 70.6138 19.0777C71.2363 18.4194 71.8119 17.7222 72.3747 17.0006C72.5623 16.7617 72.7372 16.5131 72.9205 16.2693C72.5581 17.6637 72.0976 18.9997 71.3045 20.1601C70.8696 20.7939 70.3622 21.3107 69.8249 21.8617C69.0915 22.6125 68.3368 23.3731 67.4244 23.8656C66.8146 24.1971 66.1452 24.3824 65.4758 24.5725C64.6614 24.8066 63.8939 25.0162 63.0454 25.2551C62.7085 25.3478 62.15 25.5184 61.7918 25.6062C61.003 25.7963 60.4913 26.0109 59.6215 25.9816C59.0757 25.9719 58.3167 25.7817 57.8434 25.2064Z" fill="#211C1B"></path><path d="M62.4158 55.3918V57.0934H64.0404V57.6394H62.4158V59.3947H64.2322V59.9408H61.8359V54.8359H64.2322V55.382H62.4158V55.3918Z" fill="#211C1B"></path><path d="M67.6567 59.8208C67.4264 59.7037 67.2431 59.538 67.1109 59.3234C66.9787 59.1138 66.9105 58.8651 66.9062 58.5872H67.5245C67.5458 58.8261 67.6311 59.026 67.7846 59.1918C67.9338 59.3576 68.1556 59.4356 68.4455 59.4356C68.7227 59.4356 68.9401 59.3576 69.1021 59.1967C69.2599 59.0406 69.3409 58.8359 69.3409 58.5872C69.3409 58.3922 69.294 58.2362 69.2002 58.1143C69.1064 57.9924 68.9913 57.8997 68.8506 57.8364C68.7099 57.773 68.5223 57.7047 68.2835 57.6316C67.9893 57.5438 67.7548 57.4561 67.5757 57.3683C67.4009 57.2805 67.2474 57.144 67.1237 56.9539C67.0001 56.7686 66.9361 56.5151 66.9361 56.1981C66.9361 55.9202 66.9958 55.6764 67.1194 55.4619C67.2431 55.2474 67.4179 55.0816 67.6396 54.9646C67.8614 54.8476 68.1215 54.7891 68.4114 54.7891C68.8293 54.7891 69.1704 54.911 69.439 55.145C69.7034 55.3839 69.8569 55.7008 69.891 56.0957H69.2514C69.2301 55.9007 69.1405 55.7301 68.9828 55.5789C68.825 55.4327 68.6161 55.3546 68.356 55.3546C68.1129 55.3546 67.9168 55.4278 67.7633 55.5692C67.6098 55.7106 67.533 55.9153 67.533 56.1738C67.533 56.359 67.5799 56.5102 67.6695 56.6272C67.759 56.7442 67.8742 56.832 68.0063 56.8954C68.1385 56.9587 68.3304 57.027 68.5734 57.105C68.8676 57.1976 69.1021 57.2903 69.2812 57.378C69.4603 57.4707 69.6138 57.6072 69.7417 57.7925C69.8696 57.9778 69.9336 58.2362 69.9336 58.558C69.9336 58.8066 69.8782 59.0407 69.763 59.2601C69.6479 59.4795 69.4774 59.655 69.2514 59.7915C69.0254 59.928 68.761 59.9963 68.454 59.9963C68.1513 60.0012 67.8869 59.9378 67.6567 59.8208Z" fill="#211C1B"></path><path d="M75.4442 54.8516V55.3928H74.229V59.9466H73.6492V55.3928H72.4297V54.8516H75.4442Z" fill="#211C1B"></path><path d="M80.726 55.1636C81.0799 55.3684 81.3528 55.6658 81.5447 56.051C81.7323 56.4362 81.8303 56.8896 81.8303 57.4113C81.8303 57.933 81.7365 58.3864 81.5447 58.7667C81.357 59.147 81.0842 59.4396 80.726 59.6443C80.3721 59.8443 79.95 59.9466 79.4639 59.9466H78.0781V54.8516H79.4639C79.95 54.8516 80.3678 54.954 80.726 55.1636ZM80.7772 58.8789C81.0799 58.5327 81.2291 58.0403 81.2291 57.4113C81.2291 56.7775 81.0756 56.285 80.7729 55.9291C80.4702 55.5732 80.031 55.3976 79.4596 55.3976H78.6537V59.4054H79.4596C80.0395 59.4006 80.4744 59.225 80.7772 58.8789Z" fill="#211C1B"></path><path d="M89.2472 58.192C89.5542 57.875 89.8143 57.5386 90.0232 57.1925C90.2322 56.8463 90.3387 56.5001 90.3387 56.1637C90.3387 55.8468 90.2705 55.5981 90.1383 55.4128C90.0062 55.2324 89.7887 55.1398 89.4902 55.1398C89.2003 55.1398 88.9743 55.2422 88.8165 55.4518C88.6588 55.6566 88.5692 55.9345 88.5564 56.2807H87.9936C88.0107 55.7346 88.1556 55.3153 88.4285 55.0179C88.7014 54.7205 89.0511 54.5742 89.4817 54.5742C89.9209 54.5742 90.2705 54.7107 90.5264 54.9887C90.7822 55.2666 90.9144 55.6469 90.9144 56.1344C90.9144 56.5391 90.8078 56.934 90.5988 57.3143C90.3899 57.6946 90.1469 58.0311 89.8783 58.3236C89.6096 58.6113 89.2685 58.9526 88.8507 59.3377H91.0508V59.8936H87.9766V59.4206C88.5138 58.9184 88.9402 58.5089 89.2472 58.192Z" fill="#211C1B"></path><path d="M93.991 55.2851C94.2298 54.817 94.6476 54.5781 95.2446 54.5781C95.8372 54.5781 96.2508 54.8122 96.4896 55.2851C96.7284 55.7532 96.8478 56.4114 96.8478 57.25C96.8478 58.1032 96.7284 58.7663 96.4896 59.2393C96.2508 59.7122 95.8372 59.9462 95.2446 59.9462C94.6476 59.9462 94.2298 59.7122 93.991 59.2393C93.7522 58.7663 93.6328 58.1032 93.6328 57.25C93.6371 56.4114 93.7522 55.758 93.991 55.2851ZM96.1997 56.1725C96.1528 55.8799 96.0504 55.641 95.9012 55.4606C95.752 55.2802 95.5302 55.1925 95.2446 55.1925C94.9546 55.1925 94.7329 55.2802 94.5837 55.4606C94.4302 55.641 94.3321 55.8799 94.2852 56.1725C94.2383 56.465 94.2127 56.8258 94.2127 57.25C94.2127 57.6888 94.2383 58.0545 94.2852 58.3519C94.3321 58.6493 94.4344 58.8882 94.5837 59.0686C94.7329 59.249 94.9546 59.3368 95.2446 59.3368C95.5302 59.3368 95.7477 59.249 95.9012 59.0686C96.0504 58.8882 96.1528 58.6493 96.1997 58.3519C96.2466 58.0545 96.2722 57.6888 96.2722 57.25C96.2764 56.8258 96.2508 56.465 96.1997 56.1725Z" fill="#211C1B"></path><path d="M100.775 58.192C101.082 57.875 101.342 57.5386 101.551 57.1925C101.76 56.8463 101.866 56.5001 101.866 56.1637C101.866 55.8468 101.798 55.5981 101.666 55.4128C101.534 55.2324 101.316 55.1398 101.018 55.1398C100.728 55.1398 100.502 55.2422 100.344 55.4518C100.186 55.6566 100.097 55.9345 100.084 56.2807H99.5213C99.5384 55.7346 99.6833 55.3153 99.9562 55.0179C100.229 54.7205 100.579 54.5742 101.009 54.5742C101.449 54.5742 101.798 54.7107 102.054 54.9887C102.31 55.2666 102.442 55.6469 102.442 56.1344C102.442 56.5391 102.335 56.934 102.127 57.3143C101.918 57.6946 101.675 58.0311 101.406 58.3236C101.137 58.6113 100.796 58.9526 100.378 59.3377H102.579V59.8936H99.5V59.4206C100.042 58.9184 100.468 58.5089 100.775 58.192Z" fill="#211C1B"></path><path d="M106.364 58.192C106.671 57.875 106.931 57.5386 107.14 57.1925C107.349 56.8463 107.456 56.5001 107.456 56.1637C107.456 55.8468 107.388 55.5981 107.256 55.4128C107.123 55.2324 106.906 55.1398 106.607 55.1398C106.317 55.1398 106.091 55.2422 105.934 55.4518C105.776 55.6566 105.686 55.9345 105.674 56.2807H105.111C105.128 55.7346 105.273 55.3153 105.546 55.0179C105.819 54.7205 106.168 54.5742 106.599 54.5742C107.038 54.5742 107.388 54.7107 107.644 54.9887C107.899 55.2666 108.032 55.6469 108.032 56.1344C108.032 56.5391 107.925 56.934 107.716 57.3143C107.507 57.6946 107.264 58.0311 106.995 58.3236C106.727 58.6113 106.386 58.9526 105.968 59.3377H108.168V59.8936H105.094V59.4206C105.631 58.9184 106.057 58.5089 106.364 58.192Z" fill="#211C1B"></path></svg>