<svg xmlns="http://www.w3.org/2000/svg" width="170" height="60" viewBox="0 0 170 60" fill="none"><g clip-path="url(#clip0_829_428)"><path d="M126.364 9.44479C127.17 8.40832 127.631 7.37185 127.746 6.45055C127.746 5.64441 127.516 4.60794 126.134 3.68663C125.097 2.99565 124.061 2.99565 123.024 3.68663C122.103 4.26245 121.297 5.29892 120.145 6.68087C119.339 7.60218 118.533 8.63865 117.497 9.79028C115.539 11.8632 107.938 16.7001 107.132 17.1607C106.211 17.5062 105.059 17.8517 103.677 18.3124C101.028 19.0033 98.0341 19.5791 95.0399 19.9246C96.8825 19.0033 98.6099 17.8517 100.337 16.2394C101.834 14.8575 102.986 13.5907 103.677 12.6694C104.253 12.3239 106.902 10.9419 111.048 7.48702C112.775 5.9899 115.424 3.34114 114.618 1.38337C114.387 0.807553 113.581 0.00141102 111.508 0.231737C108.629 0.462064 107.247 1.72886 106.556 3.11082C105.865 3.11082 104.598 3.11082 103.677 4.03212C102.986 4.60794 102.641 5.52924 102.641 6.79604C102.641 7.94767 102.756 8.75381 102.871 9.32963C102.986 10.4813 102.986 10.8267 102.525 12.3239C100.568 14.8575 95.7308 19.9246 89.0514 20.5005C85.7116 20.7308 82.4871 20.7308 79.608 20.7308C81.1051 19.9246 83.178 18.773 85.5965 17.0456C89.7423 14.0513 95.2702 9.21446 98.6099 2.30467C98.7251 2.07435 98.7251 1.95918 98.6099 1.72886C98.4947 1.6137 98.2644 1.49853 98.1493 1.49853C98.0341 1.49853 95.5005 1.72886 91.4698 4.26245C85.0207 8.40832 80.0686 15.4333 76.8441 20.7308C71.8921 20.8459 67.2855 21.5369 63.0245 22.9189C62.5638 23.034 62.1032 23.1492 61.7577 23.3795C58.418 24.5312 55.3086 26.1434 52.5446 28.1012C47.2471 31.7864 44.9439 35.5868 44.9439 35.702C44.8287 35.9323 44.8287 36.2778 45.1742 36.5081C45.4045 36.6233 45.75 36.5081 45.9803 36.2778C45.9803 36.2778 48.1684 32.5926 53.3508 29.0225C55.8844 27.1799 58.8786 25.6828 61.988 24.5312C64.7519 26.7193 68.2068 29.2529 72.1224 31.441C75.0015 32.9381 78.1109 34.32 81.2203 35.011C85.7116 36.0475 88.2452 35.3565 88.2452 35.3565C88.4756 35.3565 88.5907 35.1262 88.5907 34.8958C88.5907 34.6655 88.5907 34.4352 88.4756 34.32C82.6022 28.677 75.8076 26.0283 70.9707 24.7615C68.5523 24.1857 66.4794 23.8402 64.9823 23.6099C69.2433 22.4582 73.965 21.8824 78.917 21.8824C80.4141 21.8824 82.1416 21.8824 83.9842 21.8824C83.9842 21.8824 84.0994 21.8824 84.0994 21.9976C89.1665 24.7615 94.5792 25.4525 97.4583 25.6828C97.5734 25.6828 98.0341 25.798 98.6099 25.9131C99.1857 26.4889 100.453 27.4102 102.065 28.4467C102.525 28.677 102.986 29.0225 103.332 29.1377C105.865 30.5196 107.938 30.9803 109.781 30.6348C111.739 30.2893 113.005 29.5983 113.466 28.5619C113.811 27.8709 113.696 27.2951 113.696 26.8344C115.309 26.4889 116.575 26.0283 117.382 25.2221C117.842 24.7615 118.188 24.0705 118.072 23.4947C117.957 22.5734 117.612 21.8824 117.036 21.5369C115.654 20.6156 113.236 21.3066 109.435 22.6886C105.98 23.9553 98.0341 24.416 97.4583 24.416C94.9247 24.1857 90.6637 23.6099 86.2875 21.7672C87.0936 21.7672 88.0149 21.6521 88.9362 21.6521H89.0514C94.1185 21.3066 99.416 20.7308 104.023 19.464C105.405 19.1185 106.441 18.773 107.362 18.4275C107.593 18.4275 109.435 17.8517 111.854 17.0456C112.429 17.0456 114.848 17.1607 117.497 17.0456C121.643 16.8152 124.061 16.0091 124.867 14.7423C126.595 11.8632 126.479 9.79028 126.364 9.44479ZM111.623 1.15304C112.314 1.15304 112.89 1.15304 113.236 1.38337C113.351 1.49853 113.466 1.6137 113.581 1.72886C113.927 2.535 112.545 4.49277 110.241 6.45055C107.938 8.40832 106.096 9.79028 104.829 10.5964C105.635 9.0993 106.671 6.9112 107.017 5.18375C107.477 3.34114 108.284 1.38337 111.623 1.15304ZM103.792 6.45055C103.792 5.64441 104.023 5.06859 104.483 4.60794C104.944 4.14728 105.635 4.03212 106.096 4.03212C106.096 4.37761 105.98 4.60794 105.98 4.83826C105.635 6.22022 104.829 8.06283 104.138 9.44479C104.138 9.32963 104.138 9.0993 104.138 8.98414C103.907 8.40832 103.907 7.60218 103.792 6.45055ZM112.429 27.7557C112.084 28.4467 111.048 29.0225 109.55 29.2529C106.786 29.7135 103.332 27.7557 101.143 26.1434C102.756 26.4889 104.714 26.8344 106.441 26.9496C108.168 27.0648 110.472 27.0648 112.545 26.7193C112.545 27.0648 112.66 27.4102 112.429 27.7557ZM109.781 23.4947C111.623 22.8037 115.078 21.5369 116.345 22.2279C116.345 22.2279 116.345 22.2279 116.46 22.2279C116.575 22.3431 116.921 22.5734 116.921 23.3795C116.921 23.725 116.806 23.9553 116.575 24.3008C115.078 25.798 109.781 26.1434 106.556 25.9131C104.944 25.798 102.986 25.4525 101.374 25.107C104.138 24.7615 107.708 24.3008 109.781 23.4947ZM91.9304 5.06859C94.2337 3.57147 95.9612 2.88049 97.1128 2.65016C93.8882 8.75381 88.821 13.2452 85.0207 15.8939C82.4871 17.7365 80.1838 19.0033 78.6867 19.6943C81.6809 14.7423 86.2874 8.75381 91.9304 5.06859ZM70.6253 25.5676C75.0015 26.7193 81.2203 29.1377 86.7481 34.0897C85.7116 34.2049 83.7539 34.2049 81.2203 33.5139C74.7711 32.0168 68.322 27.8709 63.7155 24.3008C65.2126 24.5312 67.7462 24.8767 70.6253 25.5676ZM118.303 10.4813C119.339 9.32963 120.261 8.29316 120.952 7.37185C123.255 4.60794 124.061 3.8018 125.213 4.49277C125.328 4.49277 125.328 4.60794 125.443 4.60794C126.134 5.06859 126.595 5.64441 126.479 6.33539C126.479 7.83251 124.637 10.0206 121.758 11.6329C119.339 13.0148 114.502 14.7423 110.932 15.7788C113.696 14.0513 117.036 11.8632 118.303 10.4813ZM124.061 13.821C123.255 15.0878 119.109 15.6636 115.309 15.6636C118.072 14.7423 120.836 13.5907 122.564 12.6694C123.6 12.0935 124.522 11.4026 125.328 10.5964C125.097 11.4026 124.867 12.5542 124.061 13.821Z" fill="#211C1B"></path><path d="M25.9367 42.9546C25.8216 43.0697 25.7064 43.1849 25.7064 43.5304V49.8644C25.7064 50.0947 25.8216 50.325 25.9367 50.325C26.0519 50.325 26.2822 50.4402 26.5126 50.5554H26.7429V51.1312H22.597V50.6705H22.8273C23.0577 50.6705 23.288 50.5553 23.4031 50.4402C23.5183 50.325 23.6335 50.2099 23.6335 49.9795V44.5669L20.7544 51.3615H20.0634L17.1843 44.5669V49.8644C17.1843 50.2099 17.2995 50.4402 17.4147 50.5554C17.5298 50.6705 17.7602 50.7857 17.9905 50.7857H18.1056V51.3615H15.2266V50.6705H15.3417C15.5721 50.6705 15.8024 50.5553 15.9175 50.4402C16.1479 50.2099 16.263 49.9795 16.263 49.634V43.5304C16.263 43.3001 16.1479 43.0697 16.0327 42.9546C15.9175 42.8394 15.6872 42.8394 15.4569 42.7243H15.2266V42.1484H18.4511L20.9847 48.2521L23.5183 42.1484H26.7429V42.7243H26.5126C26.2822 42.8394 26.0519 42.8394 25.9367 42.9546Z" fill="#211C1B"></path><path d="M33.772 50.7876C33.081 50.4421 32.5052 49.8663 32.0446 49.1753C31.5839 48.4843 31.4688 47.6781 31.4688 46.7568C31.4688 45.8355 31.6991 45.0294 32.0446 44.3384C32.3901 43.6474 33.081 43.0716 33.772 42.611C34.463 42.2655 35.2691 42.0352 36.1904 42.0352C36.9966 42.0352 37.8027 42.2655 38.4937 42.611C39.1847 42.9565 39.7605 43.5323 40.2211 44.2233C40.6818 44.9142 40.797 45.7204 40.797 46.6417C40.797 47.563 40.5666 48.3691 40.2211 49.0601C39.7605 49.7511 39.1847 50.3269 38.4937 50.7876C37.8027 51.133 36.9966 51.3634 36.1904 51.3634C35.2691 51.3634 34.463 51.2482 33.772 50.7876ZM37.3421 50.2117C37.6876 49.8662 37.9179 49.4056 38.1482 48.9449C38.3785 48.3691 38.3785 47.7933 38.3785 46.9872C38.3785 46.181 38.2634 45.4901 38.033 44.9142C37.8027 44.2233 37.5724 43.7626 37.2269 43.4171C36.8814 43.0716 36.4208 42.8413 35.9601 42.8413C35.4995 42.8413 35.154 42.9565 34.8085 43.3019C34.463 43.6474 34.2327 43.9929 34.0023 44.5687C33.772 45.1446 33.6569 45.7204 33.6569 46.5265C33.6569 47.3327 33.772 48.0236 34.0023 48.5995C34.2327 49.2904 34.463 49.7511 34.8085 50.0966C35.154 50.4421 35.6146 50.6724 36.0753 50.6724C36.6511 50.6724 36.9966 50.4421 37.3421 50.2117Z" fill="#211C1B"></path><path d="M54.4963 50.6725V51.2484H51.8476C51.6172 50.9029 51.2718 50.4422 50.9263 49.8664L49.6595 47.9086C49.4291 47.5631 49.314 47.448 49.1988 47.3328C49.0837 47.2176 48.9685 47.2176 48.7382 47.2176H48.5078V49.9816C48.5078 50.2119 48.623 50.4422 48.7382 50.4422C48.8533 50.5574 49.0837 50.5574 49.314 50.6725H49.5443V51.2484H45.3984V50.6725H45.6288C45.8591 50.6725 46.0894 50.5574 46.2046 50.4422C46.3197 50.327 46.4349 50.2119 46.4349 49.9816V43.6476C46.4349 43.4173 46.3197 43.1869 46.2046 43.0718C46.0894 42.9566 45.8591 42.9566 45.6288 42.8414H45.3984V42.2656H50.005C50.9263 42.2656 51.7324 42.496 52.4234 42.8414C52.9992 43.1869 53.3447 43.8779 53.3447 44.5689C53.3447 45.1447 53.1144 45.6054 52.7689 46.066C52.4234 46.4115 51.9627 46.757 51.2718 46.8722L52.7689 49.1754C53.1144 49.7512 53.4599 50.0967 53.575 50.327C53.8053 50.5574 54.0357 50.6725 54.266 50.6725H54.4963ZM49.5443 46.4115C50.1201 46.4115 50.4656 46.2963 50.8111 45.9508C51.1566 45.7205 51.2718 45.2599 51.2718 44.684C51.2718 44.1082 51.0414 43.6476 50.6959 43.3021C50.3505 43.0718 49.8898 42.8414 49.314 42.8414H48.5078V46.2963H49.5443V46.4115Z" fill="#211C1B"></path><path d="M68.086 42.1484V42.7243H67.9709C67.7405 42.7243 67.5102 42.8394 67.395 42.9546C67.2799 43.0697 67.1647 43.3001 67.1647 43.6456V51.1312H66.3586L60.9459 44.5669V49.5189C60.9459 49.8644 61.0611 50.0947 61.1762 50.2099C61.2914 50.325 61.5217 50.4402 61.7521 50.4402H61.8672V51.016H58.873V50.6705H58.9881C59.2185 50.6705 59.4488 50.5553 59.564 50.4402C59.6791 50.325 59.7943 50.0947 59.7943 49.7492V43.6456C59.7943 43.4152 59.6791 43.1849 59.564 43.0697C59.4488 42.9546 59.2185 42.9546 58.9881 42.8394H58.7578V42.2636H61.5217L66.0131 47.7914V43.7607C66.0131 43.4152 65.8979 43.1849 65.7828 43.0697C65.6676 42.9546 65.4373 42.8394 65.2069 42.8394H65.0918V42.2636H68.086V42.1484Z" fill="#211C1B"></path><path d="M72.8125 50.6725H73.0428C73.2732 50.6725 73.5035 50.5574 73.6186 50.4422C73.7338 50.327 73.849 50.2119 73.849 49.9816V43.6476C73.849 43.4173 73.7338 43.1869 73.6186 43.0718C73.5035 42.9566 73.2732 42.9566 73.0428 42.8414H72.8125V42.2656H76.9584V42.8414H76.728C76.4977 42.8414 76.2674 42.9566 76.1522 43.0718C76.0371 43.1869 75.9219 43.3021 75.9219 43.6476V49.9816C75.9219 50.2119 76.0371 50.4422 76.1522 50.4422C76.2674 50.5574 76.4977 50.5574 76.728 50.6725H76.9584V51.2484H72.8125V50.6725Z" fill="#211C1B"></path><path d="M91.0059 42.1484V42.7243H90.8907C90.6604 42.7243 90.4301 42.8394 90.3149 42.9546C90.1997 43.0697 89.9694 43.4152 89.9694 43.7607V51.2463H89.1633L83.7506 44.682V49.634C83.7506 49.9795 83.8658 50.2099 83.9809 50.325C84.0961 50.4402 84.3264 50.5554 84.5567 50.5554H84.6719V51.1312H81.6777V50.6705H81.7928C82.0232 50.6705 82.2535 50.5553 82.3686 50.4402C82.4838 50.325 82.599 50.0947 82.599 49.7492V43.6456C82.599 43.4152 82.4838 43.1849 82.3686 43.0697C82.2535 42.9546 82.0232 42.9546 81.7928 42.8394H81.5625V42.2636H84.3264L88.8178 47.7914V43.7607C88.8178 43.4152 88.7026 43.1849 88.5875 43.0697C88.4723 42.9546 88.242 42.8394 88.0116 42.8394H87.8965V42.2636H91.0059V42.1484Z" fill="#211C1B"></path><path d="M104.36 46.755V47.3308H104.245C104.014 47.3308 103.899 47.4459 103.784 47.5611C103.669 47.6763 103.669 47.7914 103.669 48.1369V50.5554C103.208 50.9008 102.632 51.1312 102.056 51.2463C101.481 51.3615 100.905 51.4767 100.329 51.4767C99.4077 51.4767 98.6016 51.2463 97.7955 50.9008C96.9893 50.5553 96.5287 49.9795 96.068 49.2886C95.6074 48.5976 95.4922 47.7914 95.4922 46.8701C95.4922 45.9488 95.7225 45.1427 96.1832 44.4517C96.6438 43.7607 97.2196 43.1849 97.9106 42.7243C98.7168 42.3788 99.5229 42.1484 100.444 42.1484C100.905 42.1484 101.481 42.1484 101.941 42.2636C102.402 42.3788 102.978 42.4939 103.438 42.7243V44.9124H102.632C102.402 44.1062 102.056 43.5304 101.711 43.1849C101.366 42.8394 100.905 42.7243 100.329 42.7243C99.8684 42.7243 99.4077 42.8394 98.9471 43.1849C98.4864 43.5304 98.2561 43.8759 98.0258 44.4517C97.7954 45.0275 97.6803 45.6033 97.6803 46.4095C97.6803 47.2156 97.7954 47.9066 98.0258 48.5976C98.2561 49.2886 98.6016 49.7492 98.9471 50.0947C99.2926 50.4402 99.8684 50.6705 100.329 50.6705C100.675 50.6705 101.02 50.5553 101.366 50.4402V48.1369C101.366 47.9066 101.25 47.6763 101.135 47.6763C101.02 47.5611 100.79 47.5611 100.444 47.4459H100.214V46.8701H104.36V46.755Z" fill="#211C1B"></path><path d="M115.766 50.6725H115.996C116.226 50.6725 116.457 50.5574 116.572 50.4422C116.687 50.327 116.802 50.2119 116.802 49.9816V43.6476C116.802 43.4173 116.687 43.1869 116.572 43.0718C116.457 42.9566 116.226 42.9566 115.996 42.8414H115.766V42.2656H120.372C121.293 42.2656 122.1 42.496 122.791 42.8414C123.482 43.1869 124.057 43.7627 124.403 44.4537C124.748 45.1447 124.979 45.9508 124.979 46.8722C124.979 47.7935 124.748 48.5996 124.403 49.2906C124.057 49.9816 123.482 50.5574 122.791 50.9029C122.1 51.2484 121.293 51.4787 120.372 51.4787H115.766V50.6725ZM120.142 50.4422C120.833 50.4422 121.524 50.0967 121.869 49.5209C122.33 48.9451 122.56 48.0238 122.56 46.9873C122.56 45.8357 122.33 44.7992 121.869 44.1082C121.409 43.4173 120.718 43.0718 119.911 43.0718H118.875V49.8664C118.875 50.0967 118.99 50.327 119.105 50.4422C119.221 50.5574 119.451 50.5574 119.796 50.5574H120.142V50.4422Z" fill="#211C1B"></path><path d="M137.302 48.4844L137.072 51.2484H129.586V50.6725H129.816C130.047 50.6725 130.277 50.5574 130.392 50.4422C130.507 50.327 130.622 50.2119 130.622 49.9816V43.6476C130.622 43.4173 130.507 43.1869 130.392 43.0718C130.277 42.9566 130.047 42.9566 129.816 42.8414H129.586V42.2656H136.841V44.5689H136.15C136.035 44.1082 135.92 43.8779 135.805 43.6476C135.69 43.4173 135.459 43.3021 135.229 43.1869C134.999 43.0718 134.653 43.0718 134.192 43.0718H132.811V46.2963H133.617C133.962 46.2963 134.308 46.1812 134.538 46.066C134.768 45.9508 134.883 45.6054 134.999 45.2599H135.574V48.2541H134.883C134.768 47.9086 134.653 47.5631 134.423 47.3328C134.192 47.1025 133.962 47.1025 133.617 47.1025H132.811V49.8664C132.811 50.0967 132.926 50.327 133.041 50.327C133.156 50.4422 133.386 50.4422 133.732 50.4422H134.308C134.768 50.4422 135.229 50.4422 135.459 50.327C135.69 50.2119 135.92 49.9816 136.15 49.7512C136.381 49.5209 136.496 49.0602 136.726 48.4844H137.302Z" fill="#211C1B"></path><path d="M155.728 42.1484V42.7243H155.612C155.382 42.7243 155.152 42.8394 155.037 43.0697C154.921 43.1849 154.691 43.5304 154.576 43.8759L151.812 51.2463H150.66L148.703 45.9488L146.63 51.2463H145.478L142.714 43.7607C142.599 43.4152 142.484 43.1849 142.253 43.0697C142.138 42.9546 141.908 42.8394 141.678 42.8394H141.562V42.2636H145.824V42.8394H145.593C145.363 42.8394 145.133 42.9546 145.017 43.0697C144.902 43.1849 144.787 43.3001 144.787 43.4152C144.787 43.5304 144.787 43.6456 144.902 43.7607L146.745 48.7127L148.242 44.682L147.896 43.7607C147.781 43.4152 147.666 43.1849 147.436 43.0697C147.321 42.9546 147.09 42.8394 146.975 42.8394H146.86V42.2636H151.006V42.8394H150.776C150.545 42.8394 150.315 42.9546 150.2 43.0697C150.085 43.1849 149.969 43.3001 149.969 43.4152C149.969 43.5304 149.969 43.6456 150.085 43.7607L151.812 48.7127L153.539 43.7607C153.655 43.6456 153.655 43.4152 153.655 43.3001C153.655 43.1849 153.539 42.9546 153.424 42.9546C153.309 42.9546 153.079 42.8394 152.848 42.7243H152.618V42.1484H155.728Z" fill="#211C1B"></path><path d="M18.5701 55.7399C18.9155 55.9702 19.1459 56.3157 19.3762 56.7763H18.9155C18.8004 56.4309 18.5701 56.2005 18.3397 55.9702C18.1094 55.7399 17.7639 55.6247 17.3033 55.6247C16.9578 55.6247 16.7274 55.7399 16.4971 55.855C16.2668 55.9702 16.0365 56.2005 15.9213 56.546C15.8061 56.8915 15.691 57.1218 15.691 57.5825C15.691 58.0431 15.8061 58.2735 15.9213 58.619C16.0365 58.8493 16.2668 59.0796 16.4971 59.3099C16.7274 59.4251 17.0729 59.5403 17.3033 59.5403C17.7639 59.5403 18.1094 59.4251 18.3397 59.1948C18.5701 58.9644 18.8004 58.7341 18.9155 58.3886H19.3762C19.261 58.8493 19.0307 59.1948 18.5701 59.4251C18.2246 59.6554 17.7639 59.7706 17.1881 59.7706C16.7274 59.7706 16.382 59.6554 16.0365 59.4251C15.691 59.1948 15.4607 58.9644 15.2303 58.619C15 58.2735 15 57.928 15 57.4673C15 57.0067 15.1152 56.6612 15.2303 56.3157C15.4607 55.9702 15.691 55.7399 16.0365 55.5096C16.382 55.2792 16.7274 55.1641 17.1881 55.1641C17.7639 55.3944 18.2246 55.5096 18.5701 55.7399Z" fill="#211C1B"></path><path d="M23.8669 55.3945V58.1584C23.8669 58.6191 23.9821 58.9646 24.2124 59.1949C24.4427 59.4252 24.673 59.5404 25.1337 59.5404C25.4792 59.5404 25.8247 59.4252 26.055 59.1949C26.2853 58.9646 26.4005 58.6191 26.4005 58.1584V55.3945H26.6308V58.1584C26.6308 58.7343 26.5157 59.1949 26.1702 59.5404C25.8247 59.8859 25.4792 60.0011 25.0185 60.0011C24.5579 60.0011 24.0972 59.8859 23.8669 59.5404C23.5214 59.1949 23.4062 58.7343 23.4062 58.1584V55.3945H23.8669Z" fill="#211C1B"></path><path d="M33.426 59.4252C33.3108 59.6556 33.1956 59.7707 32.9653 59.8859C32.735 60.0011 32.5046 60.0011 32.1592 60.0011C31.8137 60.0011 31.5833 60.0011 31.353 59.8859C31.1227 59.7707 30.8924 59.6556 30.7772 59.4252C30.662 59.1949 30.5469 59.0798 30.5469 58.8494H31.0075C31.0075 58.9646 31.1227 59.0798 31.1227 59.1949C31.2379 59.3101 31.353 59.4252 31.4682 59.5404C31.5833 59.6556 31.8137 59.6556 32.044 59.6556C32.2743 59.6556 32.5046 59.5404 32.735 59.4252C32.8501 59.3101 32.9653 59.0798 32.9653 58.8494C32.9653 58.6191 32.9653 58.5039 32.8501 58.3888C32.735 58.2736 32.6198 58.1585 32.5046 58.0433C32.3895 57.9281 32.1592 57.9281 31.9288 57.813C31.6985 57.6978 31.4682 57.5826 31.2379 57.5826C31.0075 57.4675 30.8924 57.3523 30.7772 57.2371C30.662 57.122 30.5469 56.8917 30.5469 56.5462C30.5469 56.2007 30.662 55.9704 30.8924 55.74C31.1227 55.5097 31.4682 55.3945 31.9288 55.3945C32.3895 55.3945 32.735 55.5097 32.9653 55.74C33.1956 55.9704 33.3108 56.2007 33.426 56.5462H32.9653C32.9653 56.3158 32.8501 56.2007 32.6198 56.0855C32.5046 55.9703 32.2743 55.8552 31.9288 55.8552C31.6985 55.8552 31.4682 55.9703 31.2379 56.0855C31.0075 56.2007 31.0075 56.431 31.0075 56.6613C31.0075 56.8917 31.0075 57.0068 31.1227 57.122C31.2379 57.2371 31.353 57.3523 31.4682 57.3523C31.5833 57.4675 31.8137 57.4675 32.044 57.5826C32.2743 57.6978 32.6198 57.813 32.735 57.813C32.9653 57.9281 33.0805 58.0433 33.1956 58.1584C33.3108 58.2736 33.426 58.5039 33.426 58.8494C33.5411 59.0798 33.5411 59.1949 33.426 59.4252Z" fill="#211C1B"></path><path d="M40.2208 55.3945V55.74H38.954V59.8859H38.4934V55.74H37.2266V55.3945H40.2208Z" fill="#211C1B"></path><path d="M47.246 55.74C47.5915 55.9704 47.8218 56.2007 48.0521 56.5462C48.2825 56.8917 48.2824 57.3523 48.2824 57.6978C48.2824 58.0433 48.1673 58.5039 48.0521 58.8494C47.8218 59.1949 47.5915 59.4252 47.246 59.6556C46.9005 59.8859 46.555 60.0011 46.0943 60.0011C45.6337 60.0011 45.2882 59.8859 44.9427 59.6556C44.5972 59.4252 44.3669 59.1949 44.1366 58.8494C43.9063 58.5039 43.9062 58.0433 43.9062 57.6978C43.9062 57.3523 44.0214 56.8917 44.1366 56.5462C44.3669 56.2007 44.5972 55.9704 44.9427 55.74C45.2882 55.5097 45.6337 55.3945 46.0943 55.3945C46.555 55.3945 46.9005 55.5097 47.246 55.74ZM45.173 56.0855C44.9427 56.2007 44.7124 56.431 44.5972 56.7765C44.4821 57.122 44.3669 57.3523 44.3669 57.813C44.3669 58.2736 44.4821 58.5039 44.5972 58.8494C44.7124 59.1949 44.9427 59.3101 45.173 59.5404C45.4034 59.6556 45.7489 59.7707 46.0943 59.7707C46.4398 59.7707 46.6702 59.6556 47.0157 59.5404C47.3611 59.4252 47.4763 59.1949 47.5915 58.8494C47.7066 58.6191 47.8218 58.2736 47.8218 57.813C47.8218 57.3523 47.7066 57.122 47.5915 56.7765C47.4763 56.431 47.246 56.3158 47.0157 56.0855C46.7853 55.8552 46.4398 55.8552 46.0943 55.8552C45.7489 55.8552 45.5185 55.8552 45.173 56.0855Z" fill="#211C1B"></path><path d="M56.8059 55.5078V59.884H56.3452V56.1988L54.8481 59.884H54.3875L52.8903 56.1988V59.884H52.4297V55.5078H53.0055L54.733 59.4234L56.3452 55.5078H56.8059Z" fill="#211C1B"></path><path d="M68.3227 55.3945V55.74H66.3649V57.5826H68.0923V57.9281H66.3649V60.0011H65.7891V55.5097H68.3227V55.3945Z" fill="#211C1B"></path><path d="M72.695 59.6537H74.3073V59.9992H72.2344V55.5078H72.695V59.6537Z" fill="#211C1B"></path><path d="M81.3319 55.74C81.6774 55.9704 81.9077 56.2007 82.1381 56.5462C82.3684 56.8917 82.3684 57.3523 82.3684 57.6978C82.3684 58.0433 82.2532 58.5039 82.1381 58.8494C81.9077 59.1949 81.6774 59.4252 81.3319 59.6556C80.9864 59.8859 80.6409 60.0011 80.1803 60.0011C79.7196 60.0011 79.3741 59.8859 79.0287 59.6556C78.6832 59.4252 78.4528 59.1949 78.2225 58.8494C77.9922 58.5039 77.9922 58.0433 77.9922 57.6978C77.9922 57.3523 78.1074 56.8917 78.2225 56.5462C78.4528 56.2007 78.6832 55.9704 79.0287 55.74C79.3741 55.5097 79.7196 55.3945 80.1803 55.3945C80.6409 55.3945 80.9864 55.5097 81.3319 55.74ZM79.3741 56.0855C79.1438 56.2007 78.9135 56.431 78.7983 56.7765C78.6832 57.122 78.4528 57.3523 78.4528 57.6978C78.4528 58.0433 78.568 58.3888 78.6832 58.7343C78.7983 59.0798 79.0287 59.1949 79.259 59.4252C79.4893 59.5404 79.8348 59.6556 80.1803 59.6556C80.5258 59.6556 80.7561 59.5404 81.1016 59.4252C81.4471 59.3101 81.5622 59.0798 81.6774 58.7343C81.7926 58.5039 81.9077 58.1584 81.9077 57.6978C81.9077 57.2371 81.7926 57.0068 81.6774 56.6613C81.5622 56.3158 81.3319 56.2007 81.1016 55.9703C80.8713 55.74 80.5258 55.74 80.1803 55.74C79.8348 55.8552 79.6045 55.8552 79.3741 56.0855Z" fill="#211C1B"></path><path d="M88.934 60.0011L87.6673 58.0433H86.9763V59.8859H86.5156V55.3945H87.8976C88.3582 55.3945 88.8189 55.5097 89.0492 55.74C89.2795 55.9704 89.3947 56.3158 89.3947 56.6613C89.3947 57.0068 89.2795 57.3523 89.0492 57.5826C88.8189 57.813 88.4734 57.9281 88.1279 57.9281L89.3947 59.8859H88.934V60.0011ZM86.8611 57.6978H87.7824C88.4734 57.6978 88.8189 57.3523 88.8189 56.7765C88.8189 56.0855 88.4734 55.8552 87.7824 55.8552H86.8611V57.6978Z" fill="#211C1B"></path><path d="M95.963 58.8496H93.8901L93.4294 60.0012H92.9688L94.6962 55.625H95.1569L96.8843 60.0012H96.4236L95.963 58.8496ZM95.8478 58.5041L94.9265 56.0857L94.0052 58.5041H95.8478Z" fill="#211C1B"></path><path d="M101.14 59.6537H102.753V59.9992H100.68V55.5078H101.14V59.6537Z" fill="#211C1B"></path><path d="M109.207 59.4252C109.092 59.6556 108.977 59.7707 108.747 59.8859C108.516 60.0011 108.286 60.0011 107.94 60.0011C107.595 60.0011 107.365 60.0011 107.134 59.8859C106.904 59.7707 106.674 59.6556 106.558 59.4252C106.443 59.1949 106.328 59.0798 106.328 58.8494H106.789C106.789 58.9646 106.904 59.0798 106.904 59.1949C107.019 59.3101 107.134 59.4252 107.249 59.5404C107.365 59.6556 107.595 59.6556 107.825 59.6556C108.056 59.6556 108.286 59.5404 108.516 59.4252C108.631 59.3101 108.747 59.0798 108.747 58.8494C108.747 58.6191 108.747 58.5039 108.631 58.3888C108.516 58.2736 108.401 58.1585 108.286 58.0433C108.171 57.9281 107.94 57.9281 107.71 57.813C107.48 57.6978 107.249 57.5826 107.019 57.5826C106.789 57.4675 106.674 57.3523 106.558 57.2371C106.443 57.122 106.328 56.8917 106.328 56.5462C106.328 56.2007 106.443 55.9704 106.674 55.74C106.904 55.5097 107.249 55.3945 107.71 55.3945C108.171 55.3945 108.516 55.5097 108.747 55.74C108.977 55.9704 109.092 56.2007 109.207 56.5462H108.747C108.747 56.3158 108.631 56.2007 108.401 56.0855C108.286 55.9703 108.056 55.8552 107.71 55.8552C107.48 55.8552 107.249 55.9703 107.019 56.0855C106.789 56.2007 106.789 56.431 106.789 56.6613C106.789 56.8917 106.789 57.0068 106.904 57.122C107.019 57.2371 107.134 57.3523 107.249 57.3523C107.365 57.4675 107.595 57.4675 107.825 57.5826C108.056 57.6978 108.401 57.813 108.516 57.813C108.747 57.9281 108.862 58.0433 108.977 58.1584C109.092 58.2736 109.207 58.5039 109.207 58.8494C109.322 59.0798 109.322 59.1949 109.207 59.4252Z" fill="#211C1B"></path><path d="M123.711 55.3945L122.56 59.8859H121.984L120.832 55.9703L119.681 59.8859H119.105L117.953 55.3945H118.414L119.335 59.3101L120.487 55.3945H121.063L122.214 59.4252L123.135 55.3945H123.711Z" fill="#211C1B"></path><path d="M130.855 55.74C131.201 55.9704 131.431 56.2007 131.661 56.5462C131.892 56.8917 131.892 57.3523 131.892 57.6978C131.892 58.0433 131.777 58.5039 131.661 58.8494C131.431 59.1949 131.201 59.4252 130.855 59.6556C130.51 59.8859 130.164 60.0011 129.704 60.0011C129.243 60.0011 128.898 59.8859 128.552 59.6556C128.207 59.4252 127.976 59.1949 127.746 58.8494C127.516 58.5039 127.516 58.0433 127.516 57.6978C127.516 57.3523 127.631 56.8917 127.746 56.5462C127.976 56.2007 128.207 55.9704 128.552 55.74C128.898 55.5097 129.243 55.3945 129.704 55.3945C130.049 55.3945 130.51 55.5097 130.855 55.74ZM128.782 56.0855C128.552 56.2007 128.322 56.431 128.207 56.7765C128.091 57.122 127.976 57.3523 127.976 57.6978C127.976 58.0433 128.091 58.3888 128.207 58.7343C128.322 59.0798 128.552 59.1949 128.782 59.4252C129.013 59.5404 129.358 59.6556 129.704 59.6556C130.049 59.6556 130.28 59.5404 130.625 59.4252C130.971 59.3101 131.086 59.0798 131.201 58.7343C131.316 58.5039 131.431 58.1584 131.431 57.6978C131.431 57.2371 131.316 57.0068 131.201 56.6613C131.086 56.3158 130.855 56.2007 130.625 55.9703C130.395 55.74 130.049 55.74 129.704 55.74C129.358 55.8552 129.013 55.8552 128.782 56.0855Z" fill="#211C1B"></path><path d="M138.34 59.9992L137.074 58.1566H136.383V59.9992H135.922V55.5078H137.304C137.764 55.5078 138.225 55.623 138.455 55.8533C138.686 56.0836 138.801 56.4291 138.801 56.7746C138.801 57.1201 138.686 57.4656 138.455 57.6959C138.225 57.9262 137.88 58.0414 137.534 58.0414L138.801 59.9992H138.34ZM136.383 57.6959H137.304C137.995 57.6959 138.34 57.3504 138.34 56.7746C138.34 56.0836 137.995 55.8533 137.304 55.8533H136.383V57.6959Z" fill="#211C1B"></path><path d="M143.634 57.6959L145.822 59.9992H145.247L143.289 57.9262V59.9992H142.828V55.5078H143.289V57.5807L145.247 55.5078H145.822L143.634 57.6959Z" fill="#211C1B"></path><path d="M152.16 59.4252C152.045 59.6556 151.93 59.7707 151.7 59.8859C151.469 60.0011 151.239 60.0011 150.894 60.0011C150.548 60.0011 150.318 60.0011 150.087 59.8859C149.857 59.7707 149.627 59.6556 149.512 59.4252C149.396 59.1949 149.281 59.0798 149.281 58.8494H149.742C149.742 58.9646 149.857 59.0798 149.857 59.1949C149.972 59.3101 150.087 59.4252 150.203 59.5404C150.318 59.6556 150.548 59.6556 150.778 59.6556C151.009 59.6556 151.239 59.5404 151.469 59.4252C151.585 59.3101 151.7 59.0798 151.7 58.8494C151.7 58.6191 151.7 58.5039 151.585 58.3888C151.469 58.2736 151.354 58.1585 151.239 58.0433C151.124 57.9281 150.894 57.9281 150.663 57.813C150.433 57.6978 150.203 57.5826 149.972 57.5826C149.742 57.4675 149.627 57.3523 149.512 57.2371C149.396 57.122 149.281 56.8917 149.281 56.5462C149.281 56.2007 149.396 55.9704 149.627 55.74C149.857 55.5097 150.203 55.3945 150.663 55.3945C151.124 55.3945 151.469 55.5097 151.7 55.74C151.93 55.9704 152.045 56.2007 152.16 56.5462H151.7C151.7 56.3158 151.585 56.2007 151.354 56.0855C151.239 55.9703 151.009 55.8552 150.663 55.8552C150.433 55.8552 150.203 55.9703 149.972 56.0855C149.742 56.2007 149.742 56.431 149.742 56.6613C149.742 56.8917 149.742 57.0068 149.857 57.122C149.972 57.2371 150.087 57.3523 150.203 57.3523C150.318 57.4675 150.548 57.4675 150.778 57.5826C151.009 57.6978 151.354 57.813 151.469 57.813C151.7 57.9281 151.815 58.0433 151.93 58.1584C152.045 58.2736 152.16 58.5039 152.16 58.8494C152.391 59.0798 152.275 59.1949 152.16 59.4252Z" fill="#211C1B"></path></g><defs><clipPath id="clip0_829_428"><rect width="170" height="60" fill="white"></rect></clipPath></defs></svg>