<svg xmlns="http://www.w3.org/2000/svg" width="170" height="60" viewBox="0 0 170 60" fill="none"><path d="M36.1452 36.1701C33.3629 38.2266 30.5806 39.3153 27.7984 39.3153C24.7742 39.3153 22.5968 38.2266 21.2661 36.0491C20.2984 34.4766 19.8145 32.662 19.8145 30.7266C19.8145 28.7911 20.1774 26.7346 20.9032 24.7991C19.2097 23.5895 18.2419 22.0169 18 20.0814C18 19.5975 18 19.2346 18 18.8717C18 15.8475 19.3306 13.4282 21.871 11.3717C24.6532 9.1943 27.7984 8.22656 31.5484 8.22656C35.2984 8.22656 38.3226 9.31527 40.7419 11.3717C43.1613 13.4282 44.371 16.4524 44.371 20.2024C44.371 20.4443 44.371 20.6862 44.371 20.9282C46.9113 19.2346 48.4839 17.783 49.2097 16.2104C49.3306 15.9685 49.4516 15.8475 49.6936 15.8475C49.9355 15.8475 49.9355 15.9685 49.9355 16.0895C49.9355 16.2104 49.8145 16.3314 49.6936 16.5733C48.2419 18.8717 46.4274 20.6862 44.129 22.1379C44.0081 23.3475 43.7661 24.6782 43.1613 26.3717C42.6774 28.0653 41.7097 29.7588 40.5 31.4524C39.4113 33.2669 37.8387 34.8395 36.1452 36.1701ZM42.1935 20.2024C42.1935 15.9685 40.8629 12.9443 38.2016 10.8879C36.3871 9.55721 34.3306 8.8314 31.9113 8.8314C31.1855 8.8314 30.4597 8.95237 29.7339 9.07334C26.7097 9.55721 24.2903 10.7669 22.3548 12.8233C20.7823 14.6379 19.9355 16.5733 19.9355 18.8717C19.9355 20.8072 20.4194 22.2588 21.5081 23.2266C22.4758 21.1701 23.9274 19.1137 25.7419 16.9362C27.7984 14.6379 29.9758 13.1862 32.2742 12.7024C32.6371 12.5814 33.121 12.5814 33.7258 12.5814C34.3306 12.5814 34.9355 12.8233 35.7823 13.3072C35.9032 13.4282 36.0242 13.5491 36.0242 13.5491C36.0242 13.6701 36.0242 13.6701 35.9032 13.7911C35.7823 13.7911 35.5403 13.7911 35.2984 13.7911C35.0565 13.6701 34.6935 13.6701 34.0887 13.6701C33.4839 13.6701 32.6371 13.912 31.5484 14.5169C30.4597 15.1217 29.371 16.0895 28.2823 17.2991C26.1048 19.8395 24.4113 22.1379 23.4435 24.4362C25.0161 25.162 26.8306 25.525 29.0081 25.525C29.9758 25.525 31.0645 25.404 32.1532 25.283C35.6613 24.7991 39.0484 23.7104 42.0726 22.1379C42.1935 21.412 42.1935 20.8072 42.1935 20.2024ZM41.9516 23.4685C37.8387 25.6459 33.4839 26.7346 28.8871 26.7346C26.7097 26.7346 24.6532 26.3717 22.9597 25.7669C22.2339 27.8233 21.75 29.5169 21.75 30.9685C21.75 34.3556 22.8387 36.654 24.8952 37.6217C25.9839 38.1056 27.0726 38.3475 28.2823 38.3475C29.371 38.3475 30.4597 38.1056 31.5484 37.6217C33.7258 36.654 35.6613 35.0814 37.4758 33.025C39.1694 30.9685 40.5 28.5491 41.4677 26.0088C41.5887 25.0411 41.8306 24.1943 41.9516 23.4685Z" fill="#211C1B"></path><path d="M50.2999 22.1389C50.2999 23.2276 49.5741 24.3163 48.1225 25.284C48.6064 25.284 49.3322 25.284 50.058 25.284C50.9047 25.284 51.9934 25.1631 53.2031 25.0421C53.2031 25.1631 53.3241 25.284 53.3241 25.6469C53.3241 26.0098 53.2031 26.4937 52.8402 27.0985C52.4773 27.7034 52.2354 28.3082 51.9934 28.7921C51.7515 29.276 51.5096 29.6389 51.2676 30.1227C51.0257 30.6066 50.7838 31.0905 50.5418 31.5743C50.2999 32.0582 50.058 32.6631 49.937 33.2679C49.3322 35.2034 49.4531 36.0502 50.1789 36.0502C51.2676 36.0502 52.7193 33.9937 54.7757 29.8808C54.8967 29.5179 55.1386 29.3969 55.2596 29.5179C55.3805 29.6389 55.3805 29.6389 55.3805 29.7598C55.3805 29.8808 55.2596 30.2437 54.8967 30.9695C54.5338 31.5743 54.1709 32.3002 53.808 33.026C53.4451 33.7518 52.8402 34.4776 52.1144 35.4453C51.1467 36.534 50.2999 37.1389 49.4531 37.1389C48.4854 37.1389 47.7596 36.534 47.3967 35.4453C47.2757 35.2034 47.2757 34.8405 47.2757 34.4776C47.2757 34.1147 47.3967 33.3889 47.7596 32.6631C48.0015 31.9372 48.4854 30.9695 49.0902 30.0018C49.6951 29.034 50.058 28.3082 50.1789 28.0663C50.2999 27.8243 50.2999 27.7034 50.2999 27.5824C50.2999 26.8566 49.3322 26.3727 47.2757 26.3727L46.7918 27.5824C45.2193 31.6953 43.7676 34.4776 42.316 35.8082C42.0741 36.0502 41.9531 35.9292 41.9531 35.5663C41.9531 35.4453 41.9531 35.4453 42.0741 35.3243C43.4047 33.5098 44.6144 31.3324 45.7031 28.7921C46.6709 26.2518 47.3967 23.9534 47.8805 21.655C48.0015 20.9292 48.3644 20.4453 48.9693 20.4453C49.5741 20.4453 49.937 20.8082 50.1789 21.534C50.2999 21.534 50.2999 21.776 50.2999 22.1389Z" fill="#211C1B"></path><path d="M61.7888 28.4287C62.6356 27.34 63.1195 26.4932 63.1195 25.7674C63.1195 25.0416 62.8775 24.6787 62.2727 24.6787C61.063 24.6787 59.7324 25.7674 58.2807 27.8238C57.7969 28.5496 57.313 29.3964 56.9501 30.4851C56.4662 31.5738 56.2243 32.5416 56.2243 33.3884C56.2243 34.2351 56.3453 34.9609 56.7082 35.5658C57.0711 36.1706 57.6759 36.4126 58.4017 36.4126C59.1275 36.4126 59.8533 36.2916 60.4582 35.9287C61.063 35.5658 61.6678 34.9609 62.2727 34.2351C62.8775 33.5093 63.2404 32.7835 63.6033 32.2996C63.8453 31.8158 64.3291 30.969 64.813 30.0013C64.934 29.6384 65.1759 29.5174 65.2969 29.5174C65.4178 29.6384 65.5388 29.6384 65.5388 29.7593C65.5388 29.8803 65.4178 30.2432 65.0549 30.969C64.692 31.6948 64.3291 32.2996 64.0872 32.9045C63.8453 33.5093 63.2404 34.2351 62.6356 34.9609C61.5469 36.2916 59.9743 37.0174 58.0388 37.0174C56.7082 37.0174 55.6195 36.6545 55.0146 36.0496C54.4098 35.3238 54.0469 34.598 54.0469 33.6303C54.0469 32.5416 54.2888 31.3319 54.8937 30.0013C55.3775 28.6706 55.9824 27.5819 56.7082 26.6142C58.1598 24.6787 59.8533 23.7109 61.6678 23.7109C62.6356 23.7109 63.2404 23.9529 63.6033 24.3158C63.9662 24.7996 64.2082 25.2835 64.2082 25.7674C64.2082 26.6142 63.8453 27.34 63.1195 27.9448C62.7566 28.3077 62.5146 28.4287 62.2727 28.4287C62.2727 28.6706 62.0307 28.6706 61.7888 28.4287Z" fill="#211C1B"></path><path d="M71.3488 35.322C71.3488 36.0478 71.5907 36.4107 72.0746 36.4107C73.2843 36.4107 74.8569 34.2332 77.0343 29.8784C77.1552 29.5155 77.3972 29.3945 77.5181 29.5155C77.6391 29.6365 77.7601 29.6365 77.7601 29.7574C77.7601 29.8784 77.5181 30.2413 77.2762 30.7252C77.0343 31.33 76.6714 31.8139 76.4294 32.4187C76.1875 32.9026 75.7036 33.6284 75.2198 34.4752C74.131 36.1687 72.9214 37.1365 71.5907 37.1365C70.744 37.1365 70.0181 36.7736 69.5343 36.0478C69.2923 35.6849 69.1714 35.322 69.1714 34.7171C69.1714 34.1123 69.2923 33.5074 69.5343 32.6607C69.7762 31.8139 70.502 30.6042 71.5907 28.7897C71.8327 28.3058 71.9536 27.9429 71.9536 27.701C71.9536 27.459 71.7117 27.3381 71.3488 27.3381C70.9859 27.3381 70.1391 27.9429 68.9294 29.0316C67.1149 30.7252 65.4214 33.1445 63.7278 36.4107C63.6069 36.7736 63.123 37.0155 62.3972 37.0155C61.6714 37.0155 61.3085 37.1365 61.1875 37.2574C65.9052 27.459 69.2923 20.5639 71.4698 16.6929C71.9536 15.8461 72.3165 15.2413 72.6794 14.8784C73.0423 14.5155 73.5262 14.3945 74.0101 14.3945C74.131 14.3945 74.373 14.3945 74.7359 14.5155C75.0988 14.6365 75.4617 14.6365 75.5827 14.5155C74.8569 15.2413 73.5262 17.4187 71.5907 20.9268C69.6552 24.4349 67.8407 27.9429 66.0262 31.572C67.2359 30.1203 68.2036 28.9107 69.1714 28.1849C70.1391 27.3381 71.2278 26.6123 72.5585 25.8865C73.8891 25.1607 74.8569 24.7978 75.4617 24.7978C75.5827 24.7978 75.7036 24.7978 75.8246 24.9187C72.8004 30.1203 71.3488 33.6284 71.3488 35.322Z" fill="#211C1B"></path><path d="M78.4854 36.1705C78.9693 36.1705 79.4531 35.9286 79.937 35.4447C80.9047 34.4769 81.9934 32.6624 83.4451 29.8802C83.566 29.5173 83.808 29.3963 83.9289 29.5173C83.9289 29.5173 84.0499 29.6382 84.0499 29.7592C84.0499 29.8802 83.9289 30.1221 83.808 30.606C83.566 31.0898 83.4451 31.4527 83.3241 31.8157C83.2031 32.1786 82.8402 32.7834 82.3564 33.5092C81.8725 34.235 81.5096 34.8398 81.1467 35.3237C80.1789 36.5334 79.2112 37.0173 78.2434 37.0173C77.3967 37.0173 76.6709 36.7753 76.308 36.1705C75.9451 35.5657 75.7031 34.9608 75.7031 34.356C75.7031 33.7511 75.8241 32.9044 76.187 32.1786L78.6063 26.1302C78.6063 26.0092 78.7273 25.7673 78.7273 25.5253C78.7273 25.2834 78.6063 24.9205 78.2434 24.5576H80.2999C80.9047 24.5576 81.1467 24.6786 81.2676 24.9205C81.3886 25.1624 81.2676 25.4044 81.0257 25.8882L78.0015 32.9044C77.5176 33.7511 77.2757 34.4769 77.2757 35.0818C77.2757 35.8076 77.7596 36.1705 78.4854 36.1705ZM82.1144 22.5011C81.7515 22.7431 81.3886 22.985 80.9047 22.985C80.5418 22.985 80.1789 22.864 79.937 22.5011C79.6951 22.2592 79.5741 21.8963 79.6951 21.4124C79.816 21.0495 79.937 20.6866 80.2999 20.3237C80.6628 20.0818 81.0257 19.8398 81.5096 19.8398C81.8725 19.8398 82.2354 19.9608 82.4773 20.3237C82.7193 20.6866 82.8402 20.9286 82.7193 21.4124C82.7193 21.8963 82.4773 22.2592 82.1144 22.5011Z" fill="#211C1B"></path><path d="M91.307 34.8376C91.307 35.6843 91.6699 36.0473 92.2747 36.0473C93.4844 36.0473 94.936 34.1118 96.8715 30.2408C96.9924 30.1198 96.9924 29.9989 97.1134 29.7569C97.2344 29.636 97.2344 29.515 97.3553 29.515C97.4763 29.515 97.5973 29.515 97.5973 29.636C97.5973 29.7569 97.5973 29.8779 97.4763 30.1198C95.5408 34.7166 93.4844 37.015 91.4279 37.015C90.7021 37.015 90.2182 36.7731 89.8553 36.1682C89.4924 35.5634 89.2505 34.9585 89.2505 34.3537C89.2505 33.7489 89.3715 33.265 89.4924 32.7811C88.0408 35.2005 86.8312 36.5311 85.7424 36.894C85.5005 37.015 85.1376 37.136 84.8957 37.136C84.6537 37.136 84.2908 37.136 84.0489 37.015C82.8392 36.6521 82.2344 35.6844 82.2344 34.1118C82.2344 33.0231 82.4763 31.8134 83.0812 30.4827C83.686 29.1521 84.4118 27.9424 85.5005 26.6118C86.4682 25.4021 87.7989 24.5553 89.1295 24.1924C89.6134 24.0714 90.2182 23.9505 90.9441 23.9505C91.6699 23.9505 92.3957 24.1924 93.3634 24.6763C95.057 21.5311 96.5086 18.5069 97.7182 15.8456C98.0812 14.9989 98.444 14.515 98.686 14.2731C99.0489 14.0311 99.2908 13.9102 99.6537 13.9102C99.8957 13.9102 100.138 13.9102 100.138 13.9102C100.138 13.9102 100.38 13.9102 100.863 14.0311C101.226 14.1521 101.589 14.1521 101.831 14.0311C101.226 14.515 99.7747 17.0553 97.2344 21.6521C94.0892 27.4585 92.2747 31.3295 91.5489 33.265C91.4279 33.7489 91.307 34.3537 91.307 34.8376ZM93.1215 25.0392C92.7586 24.6763 92.3957 24.5553 91.7908 24.5553C91.186 24.5553 90.3392 25.0392 89.3715 25.886C87.6779 27.2166 86.3473 29.0311 85.2586 30.9666C84.5328 32.2973 84.1699 33.386 84.1699 34.2327C84.1699 34.5956 84.2908 34.9585 84.4118 35.3214C84.5328 35.6844 84.7747 35.8053 85.1376 35.8053C85.9844 35.8053 87.0731 34.9585 88.2828 33.144C89.4924 31.5714 91.186 28.7892 93.1215 25.0392Z" fill="#211C1B"></path><path d="M114.898 9.5579C115.382 9.67887 115.744 9.31597 115.744 8.95306C115.865 7.98532 116.349 7.25952 116.954 6.89661C118.769 5.68694 121.672 6.41274 121.793 6.41274C122.035 6.41274 122.277 6.41274 122.398 6.29177C124.938 4.59823 125.906 4.71919 126.269 4.84016C127.357 5.445 126.994 9.43694 126.632 12.945V13.4289C125.906 20.566 127.841 24.316 127.841 24.5579C127.962 24.7998 128.204 25.0418 128.567 25.0418C128.688 25.0418 128.809 25.0418 128.93 24.9208C129.293 24.6789 129.535 24.316 129.293 23.8321C129.293 23.8321 127.599 20.2031 128.204 13.5498V13.066C128.688 8.34823 129.051 4.59823 126.994 3.38855C125.785 2.66274 124.212 3.14661 121.793 4.71919C120.825 4.59823 118.043 4.23532 116.107 5.56597C115.019 6.29177 114.414 7.38048 114.172 8.71113C114.172 9.195 114.535 9.5579 114.898 9.5579Z" fill="#211C1B"></path><path d="M108.248 21.1698C108.369 21.8956 108.732 22.8634 110.183 23.5892C110.546 23.8311 111.03 23.5892 111.272 23.2263C111.514 22.8634 111.272 22.3795 110.909 22.1376C109.941 21.6537 109.82 21.1698 109.82 20.9279C109.699 19.7182 111.272 18.1456 111.877 17.6618C112.24 17.4198 112.24 16.9359 111.998 16.573C110.788 15.1214 110.546 13.7908 110.909 13.1859C111.272 12.5811 112.723 12.4601 115.627 13.5488C121.675 15.9682 124.578 25.4037 124.578 25.5247C124.699 25.8876 124.941 26.1295 125.304 26.1295C125.425 26.1295 125.425 26.1295 125.546 26.1295C125.909 26.0085 126.151 25.5247 126.03 25.1618C125.909 24.7988 122.885 14.8795 116.111 12.2182C111.877 10.5247 110.183 11.3714 109.457 12.4601C108.611 13.6698 108.973 15.3634 110.183 17.1779C109.336 17.7827 108.006 19.4763 108.248 21.1698Z" fill="#211C1B"></path><path d="M110.903 29.7562C111.145 30.6029 111.628 32.0545 112.717 32.7803C113.201 33.1432 113.806 33.2642 114.411 33.2642C115.015 33.2642 115.499 33.1432 116.225 32.9013C116.588 32.7803 116.83 32.2965 116.709 31.9336C116.588 31.5707 116.104 31.3287 115.741 31.4497C114.895 31.8126 114.169 31.8126 113.564 31.4497C112.717 30.8449 112.354 29.5142 112.354 28.9094C112.354 28.5465 111.991 28.1836 111.628 28.1836C109.814 28.0626 109.209 27.6997 109.209 27.5787C109.209 27.2158 110.903 25.7642 114.532 25.2803C119.854 24.5545 123.12 27.9416 123.241 28.0626C123.483 28.4255 124.088 28.4255 124.33 28.0626C124.693 27.8207 124.693 27.2158 124.33 26.9739C124.209 26.8529 120.459 22.982 114.29 23.7078C110.419 24.1916 107.515 25.8852 107.636 27.5787C107.636 28.5465 108.241 29.5142 110.903 29.7562Z" fill="#211C1B"></path><path d="M115.261 37.8634C120.584 33.3876 125.18 31.694 125.18 31.694C125.543 31.5731 125.785 31.0892 125.664 30.7263C125.543 30.3634 125.059 30.1214 124.696 30.2424C124.455 30.3634 119.737 31.936 114.172 36.6537C111.39 39.073 108.85 42.3392 110.059 43.9118C110.422 44.2747 110.785 44.5166 111.39 44.5166C112.479 44.5166 113.93 43.9118 115.745 42.7021C116.713 43.6698 118.89 45.1214 122.156 43.065C124.696 41.4924 124.817 39.7989 124.938 38.3472C125.059 37.5005 125.059 36.7747 125.664 36.0489C125.906 35.686 125.906 35.2021 125.543 34.9601C125.18 34.7182 124.696 34.7182 124.455 35.0811C123.487 36.1698 123.487 37.3795 123.366 38.3472C123.245 39.6779 123.245 40.6456 121.309 41.8553C118.285 43.6698 116.713 41.6134 116.592 41.3714C116.35 41.0085 115.866 40.8876 115.503 41.1295C112.479 43.065 111.511 43.065 111.39 42.944C111.269 42.5811 112.237 40.4037 115.261 37.8634Z" fill="#211C1B"></path><path d="M154.575 19.1129C154.454 18.9919 154.212 18.871 153.97 18.871C145.381 19.2339 140.059 23.8306 137.156 27.7016C134.01 31.8145 132.922 35.9274 132.922 36.0484C132.801 36.4113 133.043 36.8952 133.526 37.0161C133.889 37.1371 134.373 36.8952 134.494 36.4113C134.494 36.4113 135.583 32.5403 138.486 28.5484C142.236 23.5887 147.075 20.8065 153.123 20.3226C152.881 21.1694 152.277 22.5 150.946 24.3145C147.317 29.3952 141.147 33.5081 136.551 36.1694C134.494 37.379 132.559 39.5565 131.228 41.25C131.47 39.0726 131.349 37.0161 131.349 35.2016C131.228 30.2419 131.107 26.6129 135.462 23.1048C138.244 20.8065 144.414 15.121 143.446 11.0081C143.083 9.43548 141.752 8.34677 139.575 7.74194C139.575 6.16936 139.333 2.05645 137.76 0.483871C137.276 0.241935 136.672 0 136.067 0C134.131 0 133.889 3.02419 133.406 7.5C133.043 11.8548 132.438 17.2984 130.26 19.2339C129.897 19.4758 129.897 19.9597 130.139 20.3226C130.381 20.6855 130.865 20.6855 131.228 20.4435C133.889 18.1452 134.494 12.5806 134.857 7.74194C135.099 5.56452 135.341 2.17742 135.946 1.69355C136.067 1.69355 136.188 1.69355 136.43 1.93548C137.518 3.02419 137.881 6.65323 137.76 8.70968C137.76 9.07258 138.002 9.43548 138.365 9.43548C140.301 9.79839 141.389 10.6452 141.631 11.6129C142.236 13.9113 139.333 17.9032 134.131 22.1371C129.293 26.129 129.293 30.4839 129.414 35.5645C129.414 37.8629 129.535 40.2823 129.172 42.9435C128.446 47.9032 122.156 54.3145 115.26 56.9758C109.454 59.2742 104.131 58.6694 100.018 55.2823C97.2362 52.9839 95.9055 50.4435 96.0265 47.9032C96.3894 42.2177 103.647 37.621 103.647 37.5C104.01 37.2581 104.131 36.7742 103.889 36.4113C103.647 36.0484 103.164 35.9274 102.801 36.1694C102.438 36.4113 94.8168 41.25 94.4539 47.7823C94.212 50.9274 95.7846 53.8306 99.0507 56.4919C101.833 58.6694 105.099 59.879 108.607 59.879C110.906 59.879 113.325 59.3952 115.865 58.4274C122.276 55.8871 128.204 50.4435 130.139 45.3629C130.381 44.879 133.527 39.7984 137.035 37.7419C153.607 28.0645 154.454 20.0806 154.454 19.7177C154.817 19.5968 154.696 19.3548 154.575 19.1129Z" fill="#211C1B"></path><path d="M39.1686 41.7344V42.3392H36.7492V44.1537H38.8057V44.7586H36.7492V47.1779H36.0234V41.7344H39.1686Z" fill="#211C1B"></path><path d="M44.4914 46.5731H46.4269V47.1779H43.7656V41.7344H44.4914V46.5731Z" fill="#211C1B"></path><path d="M54.7732 41.9762C55.1361 42.2181 55.499 42.581 55.7409 42.9439C55.9829 43.3068 56.1038 43.7907 56.1038 44.3955C56.1038 45.0004 55.9829 45.3633 55.7409 45.8472C55.499 46.2101 55.1361 46.573 54.7732 46.8149C54.4103 47.0568 53.9264 47.1778 53.4425 47.1778C52.9587 47.1778 52.4748 47.0568 52.1119 46.8149C51.749 46.573 51.3861 46.2101 51.1442 45.8472C50.9022 45.4842 50.7812 45.0004 50.7812 44.3955C50.7812 43.7907 50.9022 43.4278 51.1442 42.9439C51.3861 42.581 51.749 42.2181 52.1119 41.9762C52.4748 41.7342 52.9587 41.6133 53.4425 41.6133C53.9264 41.6133 54.4103 41.7342 54.7732 41.9762ZM52.4748 42.581C52.2329 42.702 51.9909 42.9439 51.749 43.3068C51.628 43.6697 51.5071 44.0326 51.5071 44.3955C51.5071 44.8794 51.628 45.2423 51.749 45.4842C51.87 45.7262 52.1119 46.0891 52.4748 46.2101C52.7167 46.331 53.0796 46.452 53.4425 46.452C53.8054 46.452 54.1683 46.331 54.4103 46.2101C54.6522 46.0891 54.8942 45.8471 55.1361 45.4842C55.2571 45.1213 55.378 44.7584 55.378 44.3955C55.378 43.9117 55.2571 43.5488 55.1361 43.3068C55.0151 42.9439 54.7732 42.702 54.4103 42.581C54.1683 42.4601 53.8054 42.3391 53.4425 42.3391C53.0796 42.2181 52.7167 42.3391 52.4748 42.581Z" fill="#211C1B"></path><path d="M63.7235 47.0568L62.2719 44.8794H61.5461V47.0568H60.8203V41.6133H62.6348C63.2397 41.6133 63.7235 41.7342 63.9655 42.0971C64.2074 42.4601 64.4493 42.823 64.4493 43.3068C64.4493 43.7907 64.3284 44.1536 64.0864 44.3955C63.8445 44.6375 63.4816 44.8794 62.9977 44.8794L64.4493 47.0568H63.7235ZM61.5461 44.3955H62.5139C63.3606 44.3955 63.7235 44.0326 63.7235 43.3068C63.7235 42.581 63.3606 42.2181 62.5139 42.2181H61.5461V44.3955Z" fill="#211C1B"></path><path d="M72.4337 45.8473H70.0144L69.5305 47.057H68.8047L70.8611 41.7344H71.7079L73.7644 47.057H73.0386L72.4337 45.8473ZM72.1918 45.2424L71.224 42.5812L70.2563 45.3634H72.1918V45.2424Z" fill="#211C1B"></path><path d="M78.843 46.5731H80.7785V47.1779H78.1172V41.7344H78.843V46.5731Z" fill="#211C1B"></path><path d="M88.5197 46.4521C88.3987 46.6941 88.1568 46.815 87.9148 46.936C87.6729 47.057 87.31 47.1779 86.9471 47.1779C86.5842 47.1779 86.2213 47.057 85.9793 46.936C85.7374 46.815 85.4955 46.5731 85.2535 46.4521C85.0116 46.3312 85.0116 45.9682 85.0116 45.7263H85.7374C85.7374 45.8473 85.8584 46.0892 85.8584 46.2102C85.8584 46.3312 86.1003 46.4521 86.2213 46.5731C86.3422 46.6941 86.5842 46.6941 86.8261 46.6941C87.189 46.6941 87.31 46.5731 87.5519 46.4521C87.6729 46.3312 87.7939 46.0892 87.7939 45.8473C87.7939 45.6053 87.7938 45.4844 87.6729 45.3634C87.5519 45.2424 87.4309 45.1215 87.189 45.0005C87.068 44.8795 86.8261 44.8795 86.4632 44.7586C86.1003 44.6376 85.8584 44.5166 85.6164 44.3957C85.3745 44.2747 85.2535 44.1537 85.1326 43.9118C85.0116 43.6699 84.8906 43.4279 84.8906 43.065C84.8906 42.8231 85.0116 42.5811 85.1326 42.3392C85.2535 42.0973 85.4955 41.9763 85.7374 41.8553C85.9793 41.7344 86.3422 41.7344 86.5842 41.7344C87.068 41.7344 87.5519 41.8553 87.7939 42.0973C88.1568 42.3392 88.2777 42.7021 88.3987 43.065H87.6729C87.6729 42.8231 87.5519 42.7021 87.31 42.4602C87.189 42.3392 86.9471 42.2182 86.5842 42.2182C86.3422 42.2182 86.1003 42.3392 85.8584 42.4602C85.7374 42.5811 85.6164 42.8231 85.6164 43.065C85.6164 43.307 85.6164 43.4279 85.7374 43.5489C85.8584 43.6699 85.9793 43.7908 86.1003 43.9118C86.2213 44.0328 86.4632 44.0328 86.8261 44.1537C87.189 44.2747 87.4309 44.3957 87.6729 44.5166C87.9148 44.6376 88.0358 44.7586 88.1568 45.0005C88.2777 45.2424 88.3987 45.4844 88.3987 45.8473C88.7616 45.9682 88.6406 46.2102 88.5197 46.4521Z" fill="#211C1B"></path></svg>