<svg xmlns="http://www.w3.org/2000/svg" width="170" height="60" viewBox="0 0 170 60" fill="none"><path fill-rule="evenodd" clip-rule="evenodd" d="M0.5625 22.4005H4.94511C6.71229 22.4005 8.06948 22.5984 9.01669 22.9801C9.96389 23.376 10.7132 23.9698 11.2645 24.7897C11.8159 25.5956 12.0845 26.5004 12.0845 27.49C12.0845 28.4231 11.8442 29.2572 11.3635 30.0206C10.8828 30.784 10.176 31.3919 9.24289 31.8726C10.4022 32.2402 11.2787 32.6643 11.9007 33.1732C12.5228 33.668 13.0034 34.2618 13.3569 34.9687C13.6962 35.6756 13.88 36.439 13.88 37.259C13.88 38.9272 13.2296 40.355 11.929 41.5002C10.6284 42.6594 8.87531 43.2391 6.68401 43.2391H0.5625V22.4005ZM2.72553 24.4363V31.1092H3.9979C5.53888 31.1092 6.68401 30.9678 7.41916 30.7133C8.14017 30.4447 8.7198 30.0206 9.14392 29.4409C9.56805 28.8613 9.78011 28.211 9.78011 27.5041C9.78011 26.5569 9.42667 25.8076 8.70566 25.2563C7.98465 24.719 6.85366 24.4504 5.29854 24.4504H2.72553V24.4363ZM2.72553 33.2015V41.2174H5.48233C7.10813 41.2174 8.29568 41.0619 9.0591 40.7792C9.82252 40.4823 10.4304 40.0157 10.8828 39.3796C11.3352 38.7434 11.5756 38.0648 11.5756 37.3296C11.5756 36.3966 11.2504 35.5907 10.6001 34.898C9.94976 34.2053 9.07324 33.7387 7.94224 33.4843C7.17882 33.3146 5.86404 33.2298 3.98376 33.2298H2.72553V33.2015ZM28.8656 21.8774C32.2304 21.8774 35.0437 22.9377 37.3057 25.0301C39.5677 27.1365 40.7128 29.7237 40.7128 32.8057C40.7128 35.8593 39.5818 38.4465 37.3198 40.5671C35.0578 42.6877 32.301 43.748 29.0494 43.748C25.7554 43.748 22.9845 42.6877 20.7083 40.5812C18.4464 38.4748 17.3154 35.9159 17.3154 32.9046C17.3154 30.8971 17.8243 29.0451 18.8563 27.3345C19.8884 25.6238 21.3021 24.2808 23.0834 23.3194C24.8648 22.3722 26.8016 21.8774 28.8656 21.8774ZM28.9646 23.9132C27.3247 23.9132 25.7696 24.3091 24.2851 25.1149C22.8148 25.9207 21.6697 26.9952 20.8356 28.3524C20.0156 29.7096 19.5915 31.2364 19.5915 32.9046C19.5915 35.3787 20.5104 37.471 22.3342 39.1675C24.172 40.8781 26.3775 41.7264 28.9505 41.7264C30.6752 41.7264 32.2728 41.3305 33.7431 40.553C35.2134 39.7754 36.3585 38.701 37.1785 37.3296C37.9984 35.9724 38.4084 34.4597 38.4084 32.7915C38.4084 31.1374 37.9984 29.6389 37.1785 28.31C36.3585 26.981 35.1992 25.9066 33.7006 25.1008C32.2304 24.3232 30.647 23.9132 28.9646 23.9132ZM42.9748 24.4363V22.4005H55.133V24.4363H50.1849V43.2391H47.9229V24.4363H42.9748ZM67.4609 22.4005L77.8236 43.2391H75.4344L71.9566 36.3966H62.329L58.8794 43.2391H56.4054L66.8954 22.4005H67.4609ZM67.1781 26.7831L63.361 34.3608H70.9952L67.1781 26.7831ZM81.2873 43.2391V22.4005H81.7679L96.5416 38.3334V22.4005H98.7753V43.2391H98.2663L83.5775 27.4476V43.2391H81.2873ZM103.836 22.4005H106.07V43.2391H103.836V22.4005ZM131.843 26.2459L130.09 27.5041C129.128 26.3307 127.969 25.4259 126.612 24.818C125.255 24.2101 123.77 23.8991 122.144 23.8991C120.377 23.8991 118.737 24.2949 117.225 25.1008C115.712 25.8925 114.553 26.9669 113.719 28.31C112.884 29.653 112.474 31.1799 112.474 32.8481C112.474 35.3928 113.408 37.5134 115.26 39.2099C117.112 40.9064 119.458 41.7688 122.286 41.7688C125.396 41.7688 127.997 40.6237 130.09 38.3475L131.843 39.5916C130.74 40.9064 129.355 41.9384 127.7 42.6595C126.046 43.3805 124.194 43.748 122.144 43.748C118.257 43.748 115.189 42.5322 112.941 40.1006C111.061 38.0506 110.113 35.5766 110.113 32.6784C110.113 29.6247 111.259 27.0659 113.535 24.9877C115.825 22.9095 118.681 21.8633 122.116 21.8633C124.194 21.8633 126.061 22.245 127.729 23.0084C129.411 23.8001 130.782 24.8746 131.843 26.2459ZM145.401 22.4005L155.763 43.2391H153.388L149.91 36.3966H140.283L136.833 43.2391H134.359L144.849 22.4005H145.401ZM145.132 26.7831L141.315 34.3608H148.949L145.132 26.7831ZM159.199 22.4005H161.432V41.2033H170V43.2391H159.199V22.4005Z" fill="#211C1B"></path><path fill-rule="evenodd" clip-rule="evenodd" d="M42.0145 7.01864C42.481 8.67272 42.481 10.4116 42.0145 12.0657C41.5621 13.6632 40.6573 15.1618 39.3284 16.42C37.9994 17.6641 36.3878 18.5124 34.6913 18.9365C32.9241 19.3748 31.0721 19.3748 29.3049 18.9365C28.9798 18.8517 28.7394 18.6113 28.6546 18.3286C28.1881 16.6745 28.1881 14.9356 28.6546 13.2815C29.107 11.684 30.0118 10.1854 31.3407 8.92719C32.6696 7.6831 34.2813 6.83485 35.9778 6.41073C37.745 5.97247 39.597 5.97247 41.3641 6.41073C41.6893 6.49555 41.9296 6.73589 42.0145 7.01864ZM40.2473 11.6274C40.5866 10.4258 40.629 9.16753 40.3745 7.95171C39.0739 7.71137 37.7308 7.75378 36.4585 8.06481C35.0588 8.41824 33.7299 9.11098 32.6272 10.143C31.5245 11.175 30.7893 12.4191 30.4218 13.7339C30.0825 14.9356 30.0401 16.1938 30.2945 17.4097C31.5952 17.65 32.9382 17.6076 34.2106 17.2966C35.6102 16.9431 36.9391 16.2504 38.0418 15.2183C39.1304 14.1863 39.8656 12.9422 40.2473 11.6274Z" fill="#211C1B"></path><path fill-rule="evenodd" clip-rule="evenodd" d="M18.9286 13.0116C18.858 13.5347 18.8862 14.0719 19.0417 14.595C19.2255 15.2453 19.5931 15.8674 20.1445 16.3904C20.6958 16.9135 21.3603 17.2528 22.053 17.4225C22.6044 17.5639 23.1699 17.5921 23.7354 17.5214C23.8061 16.9984 23.7778 16.4611 23.6223 15.938C23.4385 15.2877 23.0709 14.6657 22.5196 14.1426C21.9682 13.6195 21.3037 13.2802 20.611 13.1106C20.0596 12.9833 19.4941 12.9409 18.9286 13.0116ZM17.2746 15.0333C16.9918 14.0578 16.9918 13.0399 17.2746 12.0644C17.3594 11.7816 17.5997 11.5413 17.9249 11.4565C18.9569 11.202 20.0596 11.202 21.0917 11.4565C22.0954 11.711 23.0426 12.2058 23.8202 12.9409C24.5978 13.6761 25.135 14.5667 25.4036 15.4998C25.6863 16.4753 25.6863 17.4932 25.4036 18.4686C25.3188 18.7514 25.0784 18.9917 24.7533 19.0766C23.7212 19.331 22.6185 19.331 21.5865 19.0766C20.5827 18.8221 19.6355 18.3273 18.858 17.5921C18.0663 16.8711 17.5432 15.9805 17.2746 15.0333Z" fill="#211C1B"></path><path fill-rule="evenodd" clip-rule="evenodd" d="M32.7794 53.8264H32.2422V49.5004H32.7935L35.5786 53.0065V49.5004H36.1158V53.8264H35.5786L32.7794 50.2921V53.8264ZM43.8349 53.8264H43.2694L42.8453 52.8085H40.5974L40.1733 53.8264H39.6078L41.4598 49.4862H41.9546L43.8349 53.8264ZM41.7001 50.179L40.7953 52.3561H42.6473L41.7425 50.179L41.7143 50.1083L41.7001 50.179ZM48.4013 53.8264H47.8641V49.9669H46.3655V49.4862H49.8998V49.9669H48.4013V53.8264ZM55.2579 53.9113C54.8621 53.9113 54.5228 53.8264 54.24 53.6568C53.9573 53.4871 53.7311 53.2609 53.5897 52.964C53.4483 52.6672 53.3635 52.342 53.3635 51.9603V49.4862H53.9007V51.932C53.9007 52.2289 53.9573 52.4834 54.0563 52.7096C54.1552 52.9358 54.3107 53.1054 54.5228 53.2327C54.7207 53.3599 54.9752 53.4306 55.2579 53.4306C55.5407 53.4306 55.7952 53.3599 55.9931 53.2468C56.191 53.1196 56.3465 52.9499 56.4596 52.7237C56.5586 52.4975 56.6151 52.243 56.6151 51.9461V49.4862H57.1524V51.9603C57.1524 52.3279 57.0817 52.6672 56.9262 52.964C56.7848 53.2609 56.5586 53.4871 56.2758 53.6568C55.9931 53.8264 55.6538 53.9113 55.2579 53.9113ZM64.4614 53.8264H63.8535L63.0901 52.2572C62.9911 52.2713 62.878 52.2713 62.7791 52.2713H61.6481V53.8123H61.1108V49.4862H62.9063C63.2173 49.4862 63.4859 49.5428 63.7121 49.6559C63.9383 49.769 64.1221 49.9386 64.2493 50.1507C64.3766 50.3628 64.4331 50.6031 64.4331 50.8858C64.4331 51.1827 64.3624 51.4372 64.2069 51.6493C64.0656 51.8613 63.8535 52.0168 63.5849 52.1299L64.4614 53.8264ZM61.6481 51.8331H62.8639C63.0759 51.8331 63.2597 51.7906 63.4152 51.7199C63.5707 51.6493 63.698 51.5362 63.7828 51.3948C63.8676 51.2534 63.91 51.0838 63.91 50.9C63.91 50.7021 63.8676 50.5465 63.7828 50.4052C63.698 50.2638 63.5707 50.1507 63.4152 50.08C63.2597 50.0093 63.0759 49.9669 62.8639 49.9669H61.6481V51.8331ZM71.7846 53.8264H71.2191L70.795 52.8085H68.5613L68.1371 53.8264H67.5716L69.4236 49.4862H69.9185L71.7846 53.8264ZM69.6498 50.179L68.745 52.3561H70.5971L69.6923 50.179L69.664 50.1083L69.6498 50.179ZM78.2313 53.8264H75.2907V49.5004H75.8279V53.3458H78.2313V53.8264ZM83.2925 53.8264V49.5004H84.9324C85.2434 49.5004 85.5262 49.5569 85.7524 49.67C85.9927 49.7831 86.1624 49.9528 86.2896 50.1507C86.4169 50.3628 86.4734 50.6031 86.4734 50.8717C86.4734 51.1545 86.4169 51.4089 86.2896 51.621C86.1624 51.8331 85.9786 52.0027 85.7524 52.1158C85.5121 52.2289 85.2434 52.2854 84.9183 52.2854H83.8156V53.8264H83.2925ZM84.9041 51.8189C85.1162 51.8189 85.3 51.7765 85.4555 51.7058C85.611 51.6351 85.7382 51.522 85.8231 51.3807C85.9079 51.2393 85.9503 51.0696 85.9503 50.8858C85.9503 50.7021 85.9079 50.5324 85.8231 50.391C85.7382 50.2497 85.611 50.1507 85.4555 50.0659C85.3 49.9952 85.1162 49.9528 84.9041 49.9528H83.8297V51.8189H84.9041ZM93.4856 53.8264H92.8777L92.1142 52.2572C92.0153 52.2713 91.9022 52.2713 91.8032 52.2713H90.6722V53.8123H90.135V49.4862H91.9304C92.2415 49.4862 92.5101 49.5428 92.7363 49.6559C92.9625 49.769 93.1463 49.9386 93.2735 50.1507C93.4007 50.3628 93.4573 50.6031 93.4573 50.8858C93.4573 51.1827 93.3866 51.4372 93.2311 51.6493C93.0897 51.8613 92.8777 52.0168 92.609 52.1299L93.4856 53.8264ZM90.6581 51.8331H91.8739C92.086 51.8331 92.2697 51.7906 92.4253 51.7199C92.5808 51.6493 92.708 51.5362 92.7928 51.3948C92.8777 51.2534 92.9201 51.0838 92.9201 50.9C92.9201 50.7021 92.8777 50.5465 92.7928 50.4052C92.708 50.2638 92.5808 50.1507 92.4253 50.08C92.2697 50.0093 92.086 49.9669 91.8739 49.9669H90.6581V51.8331ZM99.1688 53.8971C98.7306 53.8971 98.3347 53.7982 97.9671 53.6002C97.5996 53.4023 97.3168 53.1337 97.1048 52.7944C96.8927 52.4551 96.7937 52.0734 96.7937 51.6634C96.7937 51.2534 96.9068 50.8717 97.1048 50.5324C97.3168 50.1931 97.5996 49.9245 97.9671 49.7266C98.3347 49.5287 98.7306 49.4297 99.1688 49.4297C99.6071 49.4297 100.003 49.5287 100.37 49.7266C100.738 49.9245 101.021 50.1931 101.233 50.5324C101.445 50.8717 101.544 51.2534 101.544 51.6634C101.544 52.0734 101.445 52.4551 101.233 52.7944C101.021 53.1337 100.738 53.4023 100.37 53.6002C100.017 53.7982 99.6071 53.8971 99.1688 53.8971ZM99.1688 53.4023C99.494 53.4023 99.805 53.3316 100.088 53.1761C100.37 53.0206 100.597 52.8085 100.752 52.5399C100.922 52.2713 100.993 51.9744 100.993 51.6634C100.993 51.3382 100.908 51.0414 100.752 50.7727C100.583 50.5041 100.37 50.2921 100.088 50.1366C99.805 49.981 99.5081 49.9104 99.1688 49.9104C98.8295 49.9104 98.5326 49.981 98.2499 50.1366C97.9671 50.2921 97.7551 50.5041 97.5854 50.7727C97.4158 51.0414 97.3451 51.3382 97.3451 51.6634C97.3451 51.9886 97.4299 52.2854 97.5854 52.5399C97.7551 52.8085 97.9671 53.0206 98.2499 53.1761C98.5326 53.3316 98.8437 53.4023 99.1688 53.4023ZM105.319 53.8264V49.5004H106.902C107.34 49.5004 107.736 49.5993 108.104 49.7831C108.471 49.981 108.754 50.2355 108.966 50.5748C109.178 50.9 109.277 51.2676 109.277 51.6775C109.277 52.0734 109.178 52.441 108.966 52.7661C108.754 53.0913 108.471 53.3599 108.104 53.5437C107.736 53.7416 107.34 53.8264 106.902 53.8264H105.319ZM106.916 53.3458C107.255 53.3458 107.552 53.2751 107.835 53.1196C108.118 52.9782 108.33 52.7661 108.485 52.5116C108.641 52.2572 108.726 51.9744 108.726 51.6634C108.726 51.3524 108.641 51.0696 108.485 50.801C108.33 50.5465 108.104 50.3345 107.821 50.1931C107.538 50.0517 107.241 49.9669 106.902 49.9669H105.856V53.3316H106.916V53.3458ZM114.805 53.9113C114.409 53.9113 114.07 53.8264 113.787 53.6568C113.504 53.4871 113.278 53.2609 113.137 52.964C112.995 52.6672 112.91 52.342 112.91 51.9603V49.4862H113.448V51.932C113.448 52.2289 113.504 52.4834 113.603 52.7096C113.702 52.9358 113.858 53.1054 114.07 53.2327C114.268 53.3599 114.522 53.4306 114.805 53.4306C115.088 53.4306 115.342 53.3599 115.54 53.2468C115.738 53.1196 115.893 52.9499 116.007 52.7237C116.105 52.4975 116.162 52.243 116.162 51.9461V49.4862H116.699V51.9603C116.699 52.3279 116.629 52.6672 116.473 52.964C116.332 53.2609 116.105 53.4871 115.823 53.6568C115.54 53.8264 115.201 53.9113 114.805 53.9113ZM122.708 53.8971C122.269 53.8971 121.874 53.7982 121.506 53.6002C121.138 53.4023 120.856 53.1337 120.644 52.7944C120.432 52.4551 120.333 52.0734 120.333 51.6634C120.333 51.2534 120.446 50.8717 120.644 50.5324C120.856 50.1931 121.138 49.9245 121.506 49.7266C121.874 49.5287 122.269 49.4297 122.708 49.4297C123.005 49.4297 123.287 49.4721 123.556 49.5711C123.825 49.67 124.065 49.7973 124.263 49.9669L123.952 50.3486C123.782 50.2072 123.584 50.1083 123.372 50.0235C123.16 49.9528 122.934 49.9104 122.694 49.9104C122.368 49.9104 122.057 49.981 121.775 50.1366C121.492 50.2921 121.266 50.5041 121.11 50.7727C120.94 51.0414 120.87 51.3382 120.87 51.6634C120.87 51.9886 120.955 52.2854 121.11 52.5399C121.28 52.8085 121.492 53.0206 121.775 53.1761C122.057 53.3316 122.354 53.4023 122.694 53.4023C122.934 53.4023 123.146 53.3599 123.358 53.2892C123.57 53.2185 123.768 53.1054 123.966 52.9499L124.263 53.3316C124.051 53.5013 123.81 53.6426 123.542 53.7416C123.287 53.8406 123.005 53.8971 122.708 53.8971ZM129.451 53.8264H128.914V49.9669H127.415V49.4862H130.95V49.9669H129.451V53.8264ZM135.728 53.883C135.375 53.883 135.036 53.8123 134.71 53.6851C134.385 53.5578 134.117 53.3599 133.919 53.1196L134.272 52.7944C134.442 52.9923 134.668 53.1337 134.922 53.2468C135.177 53.3458 135.445 53.4023 135.728 53.4023C135.94 53.4023 136.124 53.374 136.294 53.3175C136.463 53.2609 136.591 53.1761 136.69 53.0489C136.789 52.9358 136.831 52.7944 136.831 52.6247C136.831 52.4692 136.774 52.3279 136.675 52.2289C136.576 52.1299 136.435 52.0451 136.265 51.9886C136.096 51.932 135.87 51.8613 135.573 51.7906C135.29 51.7199 135.035 51.6493 134.838 51.5644C134.64 51.4796 134.47 51.3665 134.329 51.211C134.187 51.0555 134.117 50.8576 134.117 50.6031C134.117 50.3769 134.187 50.179 134.314 49.9952C134.442 49.8255 134.626 49.6842 134.866 49.5852C135.106 49.4862 135.375 49.4438 135.686 49.4438C135.983 49.4438 136.265 49.4862 136.534 49.5852C136.803 49.6842 137.043 49.8114 137.241 49.9952L136.916 50.3486C136.76 50.2214 136.576 50.1083 136.364 50.0376C136.152 49.9669 135.926 49.9245 135.714 49.9245C135.516 49.9245 135.347 49.9528 135.177 50.0093C135.021 50.0659 134.88 50.1507 134.795 50.2497C134.696 50.3628 134.654 50.49 134.654 50.6314C134.654 50.7869 134.696 50.9 134.795 50.9989C134.894 51.0979 135.021 51.1686 135.163 51.211C135.318 51.2676 135.53 51.3241 135.799 51.3948C136.138 51.4796 136.407 51.5786 136.619 51.6634C136.831 51.7482 137.015 51.8755 137.142 52.031C137.283 52.1865 137.354 52.3844 137.354 52.6389C137.354 52.9075 137.283 53.1337 137.142 53.3175C137.001 53.5013 136.803 53.6568 136.548 53.7557C136.322 53.8406 136.039 53.883 135.728 53.883Z" fill="#211C1B"></path></svg>