<svg xmlns="http://www.w3.org/2000/svg" width="170" height="60" viewBox="0 0 170 60" fill="none"><g clip-path="url(#clip0_829_465)"><path d="M39.9541 32.3152C39.9541 33.6931 39.453 35.0709 38.4509 36.1983C37.0731 37.9519 35.0689 39.2045 32.6889 39.9561C30.9353 40.5824 29.1816 40.8329 27.5532 40.8329C26.9269 40.8329 26.3006 40.8329 25.7996 40.7077C21.9165 40.2066 18.6597 39.3298 16.0292 38.2025C13.6493 39.9561 11.0188 40.9582 8.26305 40.9582C5.00626 40.9582 3.12735 40.0814 2.37578 38.3277C2.12526 37.8267 2 37.3256 2 36.6993C2 36.073 2.25052 35.572 2.87683 34.9457C3.75365 33.9436 5.00626 33.4425 6.50939 33.4425C7.51148 33.4425 8.51357 33.5678 9.26514 33.9436C10.142 34.1941 11.144 34.6952 12.3967 35.3215C13.6493 35.9478 14.5261 36.4488 15.1524 36.6993C16.2797 35.6972 17.4071 34.1941 18.5344 32.3152C19.6618 30.4363 20.6639 28.5574 21.5407 26.8037C22.4175 25.0501 23.5449 22.9206 24.9228 20.7912C26.3006 18.5365 27.6785 16.6576 29.0564 15.1544L31.1858 12.7745C29.1816 12.3987 27.0522 12.2734 24.7975 12.2734C22.5428 12.2734 19.7871 12.524 17.0313 13.1503C13.1482 13.9018 10.2672 15.6555 8.13779 18.1607C6.88518 19.6638 6.25887 21.0417 6.25887 22.4196C6.25887 24.1732 7.1357 25.4258 8.88935 25.9269C9.51566 26.0522 10.0167 26.1774 10.5177 26.1774C11.0188 26.1774 11.5198 26.0522 12.1461 25.9269C12.7724 25.8016 13.3987 25.4258 13.8998 24.7995C14.4008 24.1732 14.9019 23.6722 15.1524 23.1711C15.4029 22.6701 15.5282 22.2943 15.5282 22.0438C15.5282 21.7933 15.6534 21.668 15.904 21.668C16.1545 21.668 16.2797 21.9185 16.2797 22.1691C16.0292 23.9227 15.0271 25.3006 13.3987 26.3027C12.3967 26.8037 11.3946 27.0542 10.3925 27.0542L8.51357 26.6785C5.88309 25.8016 4.63048 24.048 4.63048 21.5428C4.63048 19.7891 5.38205 18.1607 6.88518 16.5323C9.26514 13.7766 12.8977 12.1482 17.5324 11.5219C19.7871 11.2714 22.167 11.0208 24.547 11.0208C26.9269 11.0208 29.4321 11.2714 32.0626 11.7724C32.8142 11.1461 33.3152 10.7703 33.8163 10.6451C34.3173 10.3945 34.6931 10.3945 34.6931 10.3945C34.8184 10.3945 34.8184 10.3945 34.8184 10.3945C34.9436 10.3945 34.9436 10.5198 34.9436 10.6451C34.8184 10.7703 34.5678 11.0208 34.1921 11.2714C33.691 11.5219 33.4405 11.8977 33.3152 12.0229C36.6973 12.8998 39.0772 14.1524 40.5804 15.6555C41.3319 16.5323 41.7077 17.4091 41.7077 18.4112C41.7077 19.2881 41.4572 20.2901 40.9562 21.167C40.2046 22.4196 39.0772 23.2964 37.4488 23.9227C35.8205 24.549 34.1921 24.9248 32.5637 24.9248C34.1921 25.4258 35.5699 26.0522 36.9478 27.0542C38.952 28.5574 39.9541 30.1858 39.9541 32.3152ZM14.4008 37.4509C11.5198 36.073 9.64092 35.1962 8.88935 34.9457C8.13779 34.6952 7.38622 34.5699 6.63466 34.5699C5.88309 34.5699 5.25678 34.8204 4.881 35.3215C4.37996 35.8225 4.2547 36.3235 4.2547 36.8246C4.2547 37.3256 4.37996 37.7014 4.50522 38.0772C5.00626 39.2045 6.13361 39.7056 7.88726 39.7056C10.2672 39.7056 12.3967 38.954 14.4008 37.4509ZM27.0522 39.8309C29.8079 39.8309 32.1879 39.0793 34.0668 37.4509C36.1962 35.8225 37.1983 33.9436 37.1983 32.0647C37.1983 30.0605 36.071 28.5574 33.9415 27.43C33.19 27.0542 32.1879 26.6785 31.0605 26.3027C29.9332 25.9269 28.9311 25.6764 28.3048 25.4258C27.5532 25.1753 27.1775 24.9248 27.0522 24.6743C27.0522 24.1732 27.428 23.9227 28.1795 23.9227C28.6806 23.9227 29.3069 23.9227 30.309 24.048C31.3111 24.1732 32.0626 24.1732 32.8142 24.1732C33.4405 24.1732 34.3173 23.9227 35.3194 23.4217C36.3215 22.9206 37.0731 22.2943 37.8246 21.5428C38.952 20.2901 39.453 19.1628 39.453 18.0354C39.453 15.7808 37.3236 14.0271 32.9395 13.025C31.6868 14.7787 29.3069 18.6618 25.9248 24.4238C22.5428 30.1858 19.9123 34.0689 18.1587 36.073L16.7808 37.4509C19.5365 38.5782 22.5428 39.3298 25.7996 39.7056C26.1754 39.7056 26.6764 39.8309 27.0522 39.8309Z" fill="#211C1B"></path><path d="M43.8336 33.3167C43.5831 33.943 43.4578 34.4441 43.3326 34.9451C43.2073 35.4462 43.082 35.9472 43.082 36.5735C43.082 37.0746 43.2073 37.5756 43.4578 38.0767C43.7083 38.5777 44.0841 38.703 44.5852 38.703C45.462 38.703 46.3388 38.0767 47.2157 36.9493C48.0925 35.6967 48.9693 34.1936 49.8461 32.4399C50.0967 32.0641 50.2219 31.9389 50.3472 32.0641C50.4724 32.1894 50.4724 32.3147 50.4724 32.4399C50.3472 32.5652 50.2219 32.941 49.9714 33.442C49.7209 33.943 49.5956 34.3188 49.4704 34.5694C49.3451 34.8199 49.2198 35.1957 48.844 35.6967C48.5935 36.1977 48.343 36.5735 48.0925 36.824C47.842 37.0746 47.5914 37.4504 47.2157 37.8261C46.8399 38.2019 46.4641 38.5777 46.2136 38.703C45.3367 39.204 44.5852 39.4545 43.8336 39.4545C43.082 39.4545 42.4557 39.3293 42.08 38.9535C41.7042 38.5777 41.4536 38.3272 41.3284 37.8261C41.2031 37.4504 41.2031 37.0746 41.2031 36.824C41.2031 36.5735 41.2031 36.1977 41.2031 35.6967C41.3284 34.9451 41.4536 34.1936 41.7042 33.442C41.9547 32.6904 42.08 32.3147 42.08 32.1894C42.7063 30.1852 43.4578 27.9305 44.4599 25.5506C45.462 23.1706 46.3388 21.2917 47.0904 20.1643C47.842 18.9117 48.343 18.1602 48.844 17.6591C49.7209 16.7823 50.4724 16.2812 51.3493 16.2812C51.9756 16.2812 52.3514 16.657 52.4766 17.5339C52.4766 17.6591 52.4766 17.9096 52.4766 18.0349C52.4766 18.9117 52.2261 19.9138 51.5998 21.1664C49.4703 25.9263 46.9651 29.5589 44.0841 32.1894C44.2094 32.3147 44.0841 32.6904 43.8336 33.3167ZM48.2177 26.3021C49.4704 24.298 50.3472 22.6696 50.9735 21.2917C51.5998 19.9138 51.8503 19.037 51.8503 18.5359C51.8503 18.0349 51.725 17.7844 51.5998 17.7844C51.3493 17.7844 50.8482 18.2854 50.2219 19.2875C49.5956 20.2896 48.5935 22.0433 47.4662 24.5485C46.3388 27.0537 45.3367 29.3084 44.5852 31.1873C45.7125 29.8094 46.9651 28.181 48.2177 26.3021Z" fill="#211C1B"></path><path d="M56.7347 26.4297C58.4883 26.4297 59.4904 27.557 59.4904 29.8117C59.4904 30.8138 59.2399 31.9412 58.7388 33.1938C57.9873 34.8222 56.9852 36.2 55.6073 37.5779C55.9831 38.2042 56.4841 38.4547 57.361 38.4547C57.9873 38.4547 58.6136 38.079 59.2399 37.4527C59.9915 36.7011 60.4925 36.0748 60.8683 35.4485C61.2441 34.8222 61.3693 34.4464 61.6198 34.1959C61.7451 33.9453 61.9956 33.5696 62.2461 33.0685C62.4967 32.5675 62.6219 32.317 62.6219 32.1917C62.6219 32.0664 62.7472 32.0664 62.8725 32.0664C63.123 32.0664 63.2482 32.0664 63.2482 32.317C63.2482 32.4422 63.2482 32.4422 63.123 32.5675L62.8725 33.0685C62.7472 33.4443 62.6219 33.6948 62.4967 33.8201C62.3714 33.9453 62.2462 34.1959 62.1209 34.5716C61.9956 34.9474 61.7451 35.198 61.6198 35.4485C61.4946 35.699 61.2441 35.9495 61.1188 36.3253C60.8683 36.7011 60.6178 36.9516 60.4925 37.2021C60.3672 37.4527 60.1167 37.7032 59.8662 37.9537C59.6157 38.2042 59.3651 38.4547 59.1146 38.58C58.4883 38.9558 57.862 39.081 57.361 39.081C56.3589 39.081 55.6073 38.7053 54.981 38.079C53.8537 38.9558 52.8516 39.3316 51.8495 39.3316C50.0958 39.3316 49.0938 38.2042 49.0938 35.9495C49.0938 34.9474 49.3443 33.8201 49.8453 32.5675C50.5969 30.8138 51.599 29.4359 52.9768 28.1833C54.2295 27.056 55.4821 26.4297 56.7347 26.4297ZM57.1105 27.6823C56.4841 27.6823 55.6073 28.1833 54.7305 29.0602C53.8537 29.937 52.9768 31.1896 52.3505 32.6927C51.4737 34.4464 51.0979 35.9495 51.0979 37.0769C51.0979 38.2042 51.4737 38.8305 52.3505 38.8305C52.9768 38.8305 53.6031 38.4547 54.48 37.8284C54.1042 37.2021 53.8537 36.7011 53.8537 36.0748C53.8537 35.0727 54.3547 34.4464 55.1063 34.4464C55.4821 34.4464 55.7326 34.5716 55.8578 34.8222C55.9831 35.0727 56.2336 35.198 56.2336 35.4485C56.2336 35.699 56.2336 35.8243 56.1084 36.0748C56.4841 35.4485 56.9852 34.5716 57.4862 33.4443C58.1125 32.1917 58.3631 30.9391 58.3631 29.8117C58.3631 28.6844 57.9873 27.6823 57.1105 27.6823Z" fill="#211C1B"></path><path d="M69.1409 26.4297C70.8946 26.4297 71.8967 27.557 71.8967 29.8117C71.8967 30.8138 71.6461 31.9412 71.1451 33.1938C70.3935 34.8222 69.3914 36.2 68.0136 37.5779C68.3894 38.2042 68.8904 38.4547 69.7672 38.4547C70.3935 38.4547 71.0198 38.079 71.6461 37.4527C72.3977 36.7011 72.8987 36.0748 73.2745 35.4485C73.6503 34.8222 73.7756 34.4464 74.0261 34.1959C74.1514 33.9453 74.4019 33.5696 74.6524 33.0685C74.9029 32.5675 75.0282 32.317 75.0282 32.1917C75.0282 32.0664 75.1534 32.0664 75.2787 32.0664C75.5292 32.0664 75.6545 32.0664 75.6545 32.317C75.6545 32.4422 75.6545 32.4422 75.5292 32.5675L75.2787 33.0685C75.1534 33.4443 75.0282 33.6948 74.9029 33.8201C74.7777 33.9453 74.6524 34.1959 74.5271 34.5716C74.4019 34.9474 74.1514 35.198 74.0261 35.4485C73.9008 35.699 73.6503 35.9495 73.525 36.3253C73.2745 36.7011 73.024 36.9516 72.8987 37.2021C72.7735 37.4527 72.523 37.7032 72.2724 37.9537C72.0219 38.2042 71.7714 38.4547 71.5209 38.58C70.8946 38.9558 70.2683 39.081 69.7672 39.081C68.7651 39.081 68.0136 38.7053 67.3873 38.079C66.2599 38.9558 65.2578 39.3316 64.2557 39.3316C62.5021 39.3316 61.5 38.2042 61.5 35.9495C61.5 34.9474 61.7505 33.8201 62.2516 32.5675C63.0031 30.8138 64.0052 29.4359 65.3831 28.1833C66.6357 27.056 67.8883 26.4297 69.1409 26.4297ZM69.5167 27.6823C68.8904 27.6823 68.0136 28.1833 67.1367 29.0602C66.2599 29.937 65.3831 31.1896 64.7568 32.6927C63.88 34.4464 63.5042 35.9495 63.5042 37.0769C63.5042 38.2042 63.88 38.8305 64.7568 38.8305C65.3831 38.8305 66.0094 38.4547 66.8862 37.8284C66.5104 37.2021 66.2599 36.7011 66.2599 36.0748C66.2599 35.0727 66.761 34.4464 67.5125 34.4464C67.8883 34.4464 68.1388 34.5716 68.2641 34.8222C68.3894 35.0727 68.6399 35.198 68.6399 35.4485C68.6399 35.699 68.6399 35.8243 68.5146 36.0748C68.8904 35.4485 69.3914 34.5716 69.8925 33.4443C70.5188 32.1917 70.7693 30.9391 70.7693 29.8117C70.7693 28.6844 70.3935 27.6823 69.5167 27.6823Z" fill="#211C1B"></path><path d="M92.1847 27.3052C89.1785 32.6914 87.6753 36.0735 87.6753 37.7019C87.6753 38.4534 87.9259 38.704 88.4269 38.704C89.0532 38.704 89.6795 38.2029 90.4311 37.3261C91.5584 35.9482 92.5605 34.1946 93.4373 32.3156C93.5626 31.9399 93.6879 31.8146 93.9384 31.9399C94.0636 32.0651 94.1889 32.0651 94.1889 32.1904C94.1889 32.3156 94.0636 32.5662 93.8131 33.0672C93.5626 33.5683 93.3121 33.944 93.1868 34.1946C93.0616 34.4451 92.6858 35.0714 92.1847 35.9482C91.6837 36.825 91.3079 37.4513 90.9321 37.8271C90.5563 38.2029 90.1806 38.5787 89.5543 38.9545C88.9279 39.3303 88.4269 39.5808 87.6753 39.5808C86.9238 39.5808 86.4227 39.205 85.9217 38.5787C85.6712 38.2029 85.5459 37.8271 85.5459 37.3261C85.5459 36.825 85.6712 36.0735 85.9217 35.3219C86.1722 34.5703 86.7985 33.1925 87.9259 31.4388C88.1764 30.9378 88.3016 30.6873 88.3016 30.4367C88.3016 30.1862 88.0511 30.0609 87.6753 30.0609C87.2996 30.0609 86.548 30.562 85.4206 31.5641C84.4185 32.5662 83.2912 33.8188 82.0386 35.5724C80.9112 37.2008 80.1597 38.5787 79.9092 39.5808C79.5334 39.5808 79.1576 39.4555 79.0323 39.0797C78.7818 38.704 78.7818 38.4534 78.7818 38.2029C78.7818 37.2008 79.4081 35.3219 80.786 32.4409C81.287 31.5641 81.4123 30.8125 81.5375 30.562C81.5375 30.1862 81.5375 30.0609 81.4123 30.0609C81.287 30.0609 81.1618 30.061 80.9112 30.1862C80.4102 30.4367 79.7839 30.9378 78.9071 31.8146C77.1534 33.443 75.525 35.823 73.7714 38.9545C73.6461 39.205 73.5208 39.3303 73.2703 39.4555C73.1451 39.4555 72.7693 39.5808 72.143 39.5808C71.6419 39.5808 71.2661 39.706 71.0156 39.706C71.5167 38.8292 72.2682 37.2008 73.3956 34.8209C75.3998 30.562 76.7776 28.182 77.4039 27.5557C77.6545 27.3052 78.1555 27.0547 78.6565 27.0547C78.7818 27.0547 79.0323 27.0547 79.4081 27.1799C79.7839 27.3052 80.1597 27.3052 80.2849 27.1799C79.4081 27.681 77.905 29.9357 75.7755 34.0693C76.9029 32.6914 77.7797 31.6893 78.2808 31.3136C78.7818 30.8125 79.1576 30.562 79.4081 30.3115C79.6586 30.061 79.7839 29.9357 80.0344 29.8104C80.1597 29.6852 80.4102 29.5599 80.6607 29.3094C80.9112 29.0589 81.1618 28.9336 81.287 28.8083C81.4123 28.6831 81.6628 28.5578 81.9133 28.3073C82.1639 28.0568 82.2891 27.9315 82.5396 27.9315C82.6649 27.9315 82.9154 27.8063 83.0407 27.5557C83.2912 27.4305 83.4165 27.3052 83.5417 27.3052C83.667 27.3052 83.7922 27.3052 84.0428 27.1799C84.2933 27.0547 84.4186 27.1799 84.4186 27.1799C84.9196 27.4305 85.1701 27.681 85.1701 28.0568C85.1701 28.4326 84.7943 29.4346 83.9175 30.9378C83.0407 32.4409 82.5396 33.443 82.2891 33.944C83.4165 32.5662 84.4185 31.4388 85.4206 30.562C86.4227 29.6852 87.5501 28.9336 88.9279 28.182C90.3058 27.4305 91.3079 27.0547 91.8089 27.0547C91.9342 27.1799 92.0595 27.3052 92.1847 27.3052Z" fill="#211C1B"></path><path d="M94.943 38.5769C95.444 38.5769 95.9451 38.3264 96.4461 37.8253C97.3229 36.9485 98.5755 35.0696 99.9534 32.1886C100.079 31.8128 100.329 31.6875 100.454 31.8128C100.454 31.8128 100.58 31.9381 100.58 32.0633C100.58 32.1886 100.454 32.4391 100.329 32.8149C100.079 33.1907 99.9534 33.6917 99.8282 33.9422C99.7029 34.318 99.3271 34.8191 98.9513 35.5706C98.4503 36.3222 98.0745 36.9485 97.6987 37.3243C96.6966 38.4516 95.6945 39.0779 94.8177 39.0779C93.9409 39.0779 93.3146 38.8274 92.9388 38.3264C92.563 37.8253 92.3125 37.199 92.3125 36.5727C92.3125 35.9464 92.4378 35.1948 92.8135 34.4433L95.1935 28.4308C95.1935 28.3055 95.3188 28.055 95.3188 27.8045C95.3188 27.5539 95.1935 27.1781 94.8177 26.8024H96.8219C97.4482 26.8024 97.6987 26.9276 97.824 27.1781C97.9492 27.4287 97.824 27.6792 97.5735 28.1802L94.5672 35.0696C94.1914 35.9464 93.9409 36.698 93.9409 37.4495C93.8156 38.2011 94.1914 38.5769 94.943 38.5769ZM98.5755 25.0487C98.1998 25.2992 97.824 25.5498 97.4482 25.5498C97.0724 25.5498 96.6966 25.4245 96.4461 25.0487C96.1956 24.7982 96.0703 24.4224 96.1956 23.9214C96.3208 23.5456 96.4461 23.1698 96.8219 22.794C97.1977 22.5435 97.5735 22.293 97.9492 22.293C98.325 22.293 98.7008 22.4182 98.9513 22.794C99.2019 23.0445 99.3271 23.4203 99.2019 23.9214C99.0766 24.4224 98.8261 24.7982 98.5755 25.0487Z" fill="#211C1B"></path><path d="M111.101 27.3055C108.095 32.5664 106.591 36.0737 106.591 37.7021C106.591 38.3284 106.842 38.7042 107.343 38.7042C108.596 38.7042 110.224 36.5748 112.353 32.3159C112.479 31.9401 112.604 31.8149 112.854 31.9401C112.98 32.0654 113.105 32.0654 113.105 32.1906C113.105 32.3159 113.105 32.4412 112.98 32.6917C111.727 35.3222 110.6 37.2011 109.723 38.0779C108.846 39.08 107.969 39.581 106.967 39.581C106.09 39.581 105.339 39.2053 104.963 38.579C104.713 38.2032 104.587 37.8274 104.587 37.3263C104.587 36.8253 104.713 36.0737 104.963 35.3222C105.214 34.5706 105.84 33.1927 106.967 31.4391C107.218 30.938 107.343 30.6875 107.343 30.437C107.343 30.1865 107.092 30.0612 106.717 30.0612C106.341 30.0612 105.464 30.5623 104.337 31.6896C102.583 33.318 100.829 35.698 99.201 38.9547C99.0758 39.2053 98.8253 39.3305 98.7 39.4558C98.5747 39.581 98.199 39.581 97.5727 39.581C97.0716 39.581 96.6958 39.7063 96.4453 39.7063C96.8211 38.9547 97.5727 37.3263 98.8253 34.8211C100.955 30.5623 102.207 28.057 102.834 27.4307C103.084 27.1802 103.585 26.9297 104.086 26.9297C104.211 26.9297 104.462 26.9297 104.838 27.0549C105.214 27.1802 105.589 27.1802 105.715 27.0549C104.838 27.556 103.335 29.8107 101.205 33.9443C102.333 32.5664 103.46 31.4391 104.337 30.5623C105.339 29.6854 106.466 28.9339 107.719 28.1823C109.097 27.4307 109.973 27.0549 110.6 27.0549C110.725 27.1802 110.976 27.3055 111.101 27.3055Z" fill="#211C1B"></path><path d="M109.726 51.1025C107.471 51.1025 106.219 50.1004 106.219 48.2214C106.219 46.5931 107.346 45.2152 109.476 43.9626C111.354 42.9605 113.609 41.9584 116.49 40.9563C117.743 40.5805 118.745 40.2047 119.371 39.9542C119.997 38.0753 120.373 36.0711 120.373 33.8164C120.373 33.3154 120.373 33.0649 120.248 32.8144C119.496 34.1922 118.62 35.6954 117.367 37.0732C115.989 38.8269 114.486 39.5784 113.108 39.2027C111.855 38.7016 111.229 37.5743 111.229 36.0711C111.229 33.9417 112.231 31.687 114.361 29.0565C115.488 27.6787 116.866 26.8018 118.369 26.426C118.745 26.3008 119.246 26.3008 119.622 26.3008C120.749 26.3008 121.876 26.6766 122.878 27.4281C123.254 27.8039 123.505 28.0544 123.505 28.1797C123.505 28.305 123.38 28.5555 123.254 28.806C123.129 29.0565 123.004 29.0565 122.753 28.9313C122.628 28.806 122.503 28.5555 122.377 28.4302C122.002 27.5534 121.501 27.0523 120.874 27.0523C119.622 27.0523 118.119 27.9292 116.49 29.8081C115.613 30.8102 114.736 31.9375 114.11 33.1901C113.359 34.6933 112.858 35.8206 112.858 36.5722C112.858 37.3237 113.108 37.9501 113.609 38.2006C113.734 38.3258 113.985 38.3258 114.11 38.3258C114.736 38.3258 115.363 37.9501 116.24 37.1985C117.116 36.4469 117.868 35.4448 118.62 34.1922C119.371 32.9396 119.747 32.0628 119.997 31.4365C120.248 30.8102 120.373 30.3091 120.749 30.1839C121 30.0586 121.375 29.9333 121.751 29.9333C122.127 29.9333 122.377 29.8081 122.503 29.8081C122.753 30.9354 122.753 32.188 122.753 33.6912C122.753 35.1943 122.503 36.8227 122.002 38.8269C123.129 38.0753 123.881 37.3237 124.382 36.6974C124.883 36.0711 125.258 35.4448 125.509 34.9438C125.759 34.4427 126.01 33.9417 126.261 33.4407C126.511 32.9396 126.636 32.5638 126.762 32.4386C126.887 32.3133 127.012 32.188 127.137 32.188C127.263 32.188 127.388 32.188 127.388 32.4386C127.388 32.5638 127.388 32.6891 127.263 32.9396C126.135 35.1943 125.258 36.8227 124.507 37.8248C123.755 38.8269 122.753 39.5784 121.501 40.2047C120.874 41.8331 119.997 43.5868 118.995 45.2152C117.868 46.8436 116.49 48.3467 114.736 49.5993C113.108 50.4761 111.354 51.1025 109.726 51.1025ZM106.97 48.973C106.97 49.8498 107.597 50.3509 108.724 50.3509C109.476 50.3509 110.227 50.1004 111.104 49.7246C111.981 49.3488 112.732 48.8478 113.359 48.472C114.361 47.7204 115.488 46.4678 116.741 44.8394C117.617 43.5868 118.369 42.3342 118.87 41.0816L117.618 41.5826C113.734 42.9605 111.104 44.0878 109.476 45.0899C108.348 45.8415 107.597 46.8436 107.221 47.9709C107.096 48.3467 106.97 48.5972 106.97 48.973Z" fill="#211C1B"></path><path d="M166.714 29.8102C166.714 29.5597 166.714 29.1839 166.589 28.8081C166.464 28.4323 166.339 28.1818 166.213 27.806C165.963 27.5555 165.838 27.305 165.587 27.0544C165.337 26.8039 165.086 26.6787 164.836 26.5534C164.334 26.3029 163.708 26.1776 163.207 26.0523C162.706 25.9271 162.08 25.9271 161.579 26.0523C160.577 26.0523 159.575 26.3029 158.572 26.5534C157.57 26.8039 156.694 27.1797 155.817 27.4302C152.184 28.9333 148.927 31.0628 146.172 33.8185C144.794 35.1964 143.541 36.5743 142.163 37.9521C140.911 39.33 139.658 40.8331 138.405 42.211C136.025 45.092 133.646 48.0983 131.266 50.854C131.015 51.1045 130.765 51.3551 130.514 51.6056C131.641 49.8519 132.518 47.973 133.27 46.0941C133.771 44.8415 134.147 43.4636 134.397 42.0857C134.648 40.7079 134.773 39.33 134.773 37.9521C134.773 37.2006 134.648 36.5743 134.648 35.8227C134.648 35.4469 134.522 35.0711 134.522 34.8206C134.397 34.4448 134.397 34.1943 134.272 33.8185C134.147 33.4427 134.021 33.1922 134.021 32.8164C133.896 32.4407 133.771 32.1901 133.646 31.8144L133.27 30.9375C133.144 30.687 133.019 30.3112 132.894 30.0607C132.393 28.8081 132.017 27.5555 131.641 26.3029C131.266 25.0503 131.015 23.7977 130.765 22.545C130.389 20.0398 130.263 17.4093 130.639 14.9041C131.015 12.3989 132.017 10.0189 133.27 7.76425C133.395 7.51373 133.52 7.26321 133.646 7.01268C133.52 7.26321 133.395 7.63899 133.395 7.88951C132.643 10.52 132.142 13.1505 132.017 15.9062C131.892 17.2841 132.017 18.662 132.142 20.0398C132.393 21.4177 132.769 22.7956 133.52 24.1734C133.896 24.7997 134.272 25.426 134.773 25.9271C135.274 26.4281 135.9 26.9292 136.401 27.4302C137.028 27.806 137.654 28.1818 138.28 28.4323C138.907 28.6828 139.658 28.9334 140.41 29.0586C141.788 29.3091 143.291 29.3091 144.669 29.0586C145.42 28.9334 146.046 28.8081 146.673 28.5576C147.299 28.307 147.925 28.0565 148.552 27.6807C149.178 27.4302 149.804 27.0544 150.305 26.6787C150.932 26.3029 151.433 25.9271 151.934 25.426C153.061 24.5492 154.063 23.6724 154.94 22.6703C156.819 20.7914 158.572 18.662 160.076 16.4073C160.827 15.2799 161.579 14.1526 162.33 13.0252C162.706 12.3989 162.957 11.8979 163.332 11.2716C163.458 11.021 163.708 10.6453 163.833 10.3947C163.959 10.1442 164.209 9.76842 164.334 9.5179C164.46 9.26738 164.46 8.8916 164.334 8.51582C164.084 8.01477 163.458 7.88951 162.957 8.14003C162.831 8.26529 162.581 8.39055 162.456 8.39055C162.33 8.51582 162.08 8.64108 161.955 8.64108C161.579 8.8916 161.203 9.01686 160.827 9.26738C160.076 9.64316 159.324 10.0189 158.447 10.2695C156.819 10.8958 155.316 11.3968 153.562 11.7726C152.685 12.0231 151.934 12.1484 151.057 12.1484C150.18 12.2736 149.428 12.2736 148.552 12.2736H147.925H147.299C147.048 12.2736 146.923 12.2736 146.673 12.1484H146.422H146.297H146.172L145.545 12.0231C145.295 12.0231 145.17 11.8979 144.919 11.8979L144.794 12.2736C144.669 12.2736 144.543 12.1484 144.543 12.1484C144.293 12.0231 144.167 12.0231 143.917 11.8979C142.414 11.2716 140.911 10.52 140.034 9.39264C139.783 9.14212 139.658 8.76634 139.533 8.51582C139.408 8.26529 139.282 7.88951 139.282 7.63899C139.282 7.01268 139.533 6.38638 139.909 5.88534C140.284 5.38429 140.911 4.88325 141.662 4.50746C142.289 4.13168 143.04 3.7559 143.792 3.50538C145.295 3.00433 147.048 2.75381 148.677 2.75381C149.554 2.75381 150.305 2.75381 151.182 2.75381C152.059 2.75381 152.936 2.87907 153.687 3.00433C154.564 3.12959 155.316 3.25486 156.067 3.50538C156.443 3.63064 156.819 3.7559 157.195 3.88116C157.57 4.00642 157.821 4.25694 158.071 4.3822C158.322 4.63273 158.447 4.75799 158.572 5.00851C158.698 5.25903 158.698 5.50955 158.572 5.76007C158.447 6.0106 158.322 6.38638 158.071 6.6369C157.821 6.88742 157.57 7.13794 157.195 7.38847C156.568 7.88951 155.817 8.26529 155.065 8.64108C154.314 9.01686 153.562 9.26738 152.685 9.39264C152.435 9.39264 152.309 9.5179 152.059 9.5179C151.808 9.5179 151.683 9.64316 151.433 9.64316C151.057 9.64316 150.556 9.76842 150.18 9.76842C149.303 9.76842 148.552 9.76842 147.675 9.64316C146.798 9.5179 146.046 9.26738 145.17 9.01686C144.794 8.8916 144.418 8.64108 144.042 8.51582C143.917 8.39055 143.666 8.26529 143.541 8.14003C143.416 8.01477 143.291 7.88951 143.291 7.76425C143.291 7.63899 143.291 7.51373 143.291 7.38847C143.416 7.26321 143.541 7.13794 143.666 7.01268C144.042 6.76216 144.418 6.6369 144.794 6.51164C145.671 6.26112 146.422 6.13586 147.299 6.13586C148.176 6.0106 149.053 6.0106 149.929 6.0106C150.806 6.0106 151.683 6.0106 152.56 6.0106C150.806 5.88534 149.053 5.76007 147.299 5.76007C146.422 5.76007 145.545 5.88534 144.669 6.0106C144.543 6.0106 144.418 6.0106 144.293 6.13586C144.167 6.13586 144.042 6.13586 143.917 6.26112C143.666 6.38638 143.541 6.38638 143.291 6.51164C143.04 6.6369 142.915 6.76216 142.664 7.01268C142.539 7.13794 142.539 7.26321 142.539 7.38847C142.539 7.51373 142.539 7.76425 142.539 7.88951C142.664 8.14003 142.79 8.39055 142.915 8.64108C143.04 8.76634 143.291 9.01686 143.416 9.14212C143.792 9.39264 144.167 9.64316 144.669 9.76842C145.545 10.1442 146.422 10.3947 147.299 10.52C148.176 10.6453 149.053 10.7705 150.055 10.7705C150.556 10.7705 150.932 10.7705 151.433 10.7705C151.683 10.7705 151.934 10.7705 152.059 10.6453C152.309 10.6453 152.435 10.6453 152.685 10.52C153.562 10.3947 154.439 10.1442 155.316 9.89369C156.193 9.5179 157.069 9.14212 157.821 8.64108C158.197 8.39055 158.572 8.01477 158.948 7.63899C159.324 7.26321 159.575 6.88742 159.825 6.26112C159.95 6.0106 160.076 5.76007 160.076 5.38429C160.076 5.13377 160.076 4.75799 159.95 4.3822C159.825 4.13168 159.7 3.7559 159.575 3.50538C159.449 3.25486 159.199 3.00433 159.074 2.87907C158.698 2.50329 158.197 2.25277 157.821 2.00225C157.32 1.75172 156.944 1.62646 156.443 1.5012C155.566 1.25068 154.689 1.00016 153.813 0.874897C152.936 0.749636 152.059 0.624375 151.057 0.499114C150.18 0.499114 149.303 0.499114 148.301 0.499114C146.422 0.624375 144.669 0.874897 142.915 1.37594C142.038 1.62646 141.161 2.00225 140.284 2.50329C139.408 3.00433 138.656 3.63064 138.03 4.50746C137.654 4.88325 137.403 5.38429 137.278 5.88534C137.153 6.13586 137.153 6.38638 137.028 6.76216C137.028 7.01268 136.902 7.38847 137.028 7.63899C137.028 8.26529 137.153 8.76634 137.403 9.26738C137.654 9.76842 137.904 10.2695 138.28 10.6453C138.907 11.3968 139.783 12.0231 140.535 12.5242C140.911 12.7747 141.412 13.0252 141.787 13.1505C142.163 13.401 142.664 13.5263 143.04 13.6515C143.291 13.7768 143.541 13.7768 143.666 13.902C143.792 13.902 143.917 14.0273 144.042 14.0273L144.418 14.1526C144.668 14.1526 144.919 14.2778 145.044 14.2778L145.671 14.4031H145.796H145.921H146.297C146.547 14.4031 146.798 14.5283 147.048 14.5283H147.8H148.552C149.428 14.5283 150.431 14.5283 151.307 14.4031C152.184 14.2778 153.061 14.1526 153.938 13.902C155.691 13.5263 157.445 12.8999 159.074 12.2736C159.7 12.0231 160.201 11.7726 160.827 11.5221C160.702 11.6473 160.702 11.7726 160.577 11.8979C159.95 13.0252 159.199 14.0273 158.447 15.1546C156.944 17.2841 155.316 19.2883 153.562 21.1672C152.685 22.044 151.683 22.9208 150.681 23.6724C150.18 24.0482 149.679 24.424 149.178 24.7997C148.677 25.1755 148.176 25.426 147.549 25.6766C147.048 25.9271 146.422 26.1776 145.796 26.4281C145.17 26.6787 144.669 26.8039 144.042 26.9292C142.915 27.1797 141.662 27.1797 140.535 26.9292C139.909 26.8039 139.408 26.6787 138.781 26.4281C138.28 26.1776 137.654 25.9271 137.278 25.6766C136.276 25.0503 135.524 24.1734 135.023 23.1713C134.522 22.1693 134.147 21.0419 133.896 19.7893C133.646 18.5367 133.646 17.2841 133.771 16.0315C133.896 13.5263 134.397 11.021 135.149 8.51582C135.524 7.26321 135.9 6.0106 136.401 4.88325C136.652 4.25694 136.902 3.63064 137.153 3.12959C137.278 2.87907 137.403 2.50329 137.529 2.25277C137.654 2.00225 137.779 1.62646 137.904 1.37594C138.03 1.00016 138.03 0.499114 137.654 0.123332C137.278 -0.252451 136.527 -0.252451 136.151 0.248593C134.397 2.25277 132.643 4.3822 131.266 6.76216C129.888 9.14212 128.886 11.7726 128.385 14.5283C128.134 15.9062 128.009 17.2841 128.134 18.662C128.134 20.0398 128.259 21.4177 128.51 22.7956C128.76 24.1734 129.011 25.426 129.387 26.8039C129.762 28.0565 130.138 29.4344 130.639 30.687C130.765 31.0628 130.89 31.3133 131.015 31.6891L131.391 32.5659C131.516 32.8164 131.641 33.1922 131.767 33.4427C131.892 33.6933 131.892 34.069 132.017 34.3196C132.142 34.5701 132.142 34.9459 132.268 35.1964C132.268 35.4469 132.393 35.8227 132.393 36.0732C132.518 36.6995 132.518 37.3258 132.518 37.9521C132.643 40.4574 132.017 42.9626 131.14 45.3425C130.263 47.7225 129.011 49.9772 127.508 52.1066C126.756 53.234 126.005 54.2361 125.128 55.2381C124.752 55.7392 124.251 56.2402 123.875 56.7413C123.625 56.9918 123.374 57.2423 123.249 57.4928L122.873 57.8686C122.748 57.9939 122.623 58.1191 122.497 58.2444C122.122 58.4949 122.122 58.996 122.247 59.497C122.497 59.9981 123.124 60.2486 123.625 59.9981C125.378 59.1212 127.007 57.8686 128.51 56.616C129.261 55.9897 129.888 55.2381 130.639 54.6118C131.266 53.8603 131.892 53.234 132.518 52.4824C133.771 51.1045 134.898 49.6014 136.151 48.0983C137.278 46.5951 138.531 45.2173 139.658 43.7141C140.911 42.3363 142.038 40.8331 143.291 39.4553C144.543 38.0774 145.796 36.6995 147.174 35.4469C149.804 32.9417 152.81 30.8123 156.193 29.4344C157.069 29.0586 157.821 28.8081 158.698 28.5576C159.575 28.307 160.451 28.1818 161.328 28.1818C161.704 28.1818 162.205 28.1818 162.581 28.1818C162.957 28.1818 163.332 28.307 163.708 28.4323C163.833 28.4323 163.959 28.5576 164.084 28.6828C164.209 28.8081 164.334 28.8081 164.334 28.9334C164.46 29.0586 164.46 29.1839 164.46 29.3091C164.46 29.4344 164.585 29.5597 164.46 29.8102C164.46 30.186 164.334 30.5617 164.209 30.9375C164.084 31.3133 163.959 31.6891 163.708 32.0649C163.332 32.8164 162.831 33.568 162.205 34.3196C162.08 34.4448 161.955 34.6954 161.704 34.8206L161.203 35.3217C160.952 35.6974 160.577 35.948 160.326 36.3237C159.95 36.6995 159.7 36.95 159.324 37.3258L158.823 37.8269C158.698 37.9521 158.447 38.2027 158.322 38.3279C156.944 39.5805 155.566 40.7079 154.063 41.8352C152.56 42.9626 151.057 43.9647 149.428 44.9668C146.172 46.8457 142.915 48.5993 139.408 49.9772C141.161 49.4761 142.915 48.7246 144.669 48.0983C146.422 47.3467 148.176 46.5951 149.804 45.7183C153.186 43.9647 156.318 41.9605 159.324 39.4553C160.827 38.2027 162.205 36.95 163.458 35.4469C164.084 34.6954 164.71 33.9438 165.211 33.067C165.462 32.6912 165.712 32.1901 165.963 31.6891C166.464 31.0628 166.589 30.4365 166.714 29.8102Z" fill="#211C1B"></path><path d="M42.713 46.218C42.4625 45.8422 42.4625 45.5917 42.3373 45.4664C42.212 45.2159 42.0867 45.0906 41.8362 45.0906C41.5857 44.9654 41.3352 44.9654 40.9594 44.9654H39.5815V47.8464H40.5836C40.9594 47.8464 41.2099 47.7211 41.3352 47.5958C41.4604 47.4706 41.5857 47.2201 41.711 46.9695H41.8362V48.8485H41.711C41.5857 48.5979 41.4604 48.3474 41.3352 48.2221C41.2099 48.0969 40.9594 47.9716 40.5836 47.9716H39.5815V50.4768C39.5815 50.6021 39.5815 50.7274 39.7068 50.8526C39.832 50.8526 39.9573 50.9779 40.2078 50.9779H40.3331V51.1032H37.9531V50.9779H38.0784C38.2036 50.9779 38.4542 50.8526 38.4542 50.8526C38.5794 50.7274 38.5794 50.7274 38.5794 50.4768V45.3411C38.5794 45.2159 38.5794 45.0906 38.4542 44.9654C38.3289 44.8401 38.2036 44.8401 38.0784 44.8401H37.9531V44.7148H42.713V46.218Z" fill="#211C1B"></path><path d="M45.9688 50.9779H46.094C46.2193 50.9779 46.4698 50.8526 46.4698 50.8526C46.5951 50.7274 46.5951 50.7274 46.5951 50.4768V45.3411C46.5951 45.2159 46.5951 45.0906 46.4698 44.9654C46.3445 44.8401 46.2193 44.8401 46.094 44.8401H45.9688V44.7148H48.3487V44.8401H48.2235C48.0982 44.8401 47.8477 44.9654 47.8477 44.9654C47.7224 45.0906 47.7224 45.2159 47.7224 45.3411V50.4768C47.7224 50.6021 47.7224 50.7274 47.8477 50.8526C47.9729 50.8526 48.0982 50.9779 48.3487 50.9779H48.8498C49.2255 50.9779 49.6013 50.9779 49.8518 50.8526C50.1024 50.7274 50.3529 50.6021 50.4781 50.3516C50.6034 50.1011 50.7287 49.7253 50.8539 49.3495H50.9792L50.8539 51.3537L45.9688 50.9779Z" fill="#211C1B"></path><path d="M55.4875 50.8529C54.9865 50.6024 54.6107 50.2266 54.3602 49.7255C54.1096 49.2245 53.9844 48.5982 53.9844 47.9719C53.9844 47.3456 54.1096 46.7193 54.3602 46.2182C54.6107 45.7172 54.9865 45.3414 55.4875 44.9656C55.9886 44.7151 56.4896 44.5898 56.9906 44.5898C57.4917 44.5898 58.118 44.7151 58.4938 44.9656C58.9948 45.2162 59.3706 45.5919 59.6211 46.093C59.8716 46.594 59.9969 47.2203 59.9969 47.8466C59.9969 48.4729 59.8716 49.0992 59.6211 49.6003C59.3706 50.1013 58.9948 50.4771 58.4938 50.8529C57.9927 51.1034 57.4917 51.2287 56.9906 51.2287C56.4896 51.2287 55.9886 51.1034 55.4875 50.8529ZM58.118 50.7276C58.3685 50.4771 58.619 50.1013 58.8696 49.7255C58.9948 49.2245 59.1201 48.7235 59.1201 48.2224C59.1201 47.5961 58.9948 47.0951 58.8696 46.4688C58.7443 45.9677 58.4938 45.5919 58.118 45.2161C57.7422 44.8404 57.3664 44.7151 56.9906 44.7151C56.6149 44.7151 56.2391 44.8404 55.9885 45.0909C55.738 45.3414 55.4875 45.7172 55.237 46.093C55.1117 46.594 54.9865 47.0951 54.9865 47.5961C54.9865 48.2224 55.1117 48.7235 55.237 49.2245C55.3622 49.7255 55.6128 50.1013 55.9885 50.4771C56.3643 50.7276 56.7401 50.9782 57.1159 50.9782C57.4917 51.1034 57.8675 50.9782 58.118 50.7276Z" fill="#211C1B"></path><path d="M71.9019 44.5898L71.7766 44.7151C71.5261 44.7151 71.4008 44.8404 71.2756 44.9656C71.1503 45.0909 71.025 45.2161 70.8998 45.4667L68.8956 51.1034H68.7703L67.2672 46.7193L65.6388 51.1034H65.5136L63.5094 45.4667C63.3841 45.2161 63.3841 44.9656 63.2589 44.9656C63.1336 44.8404 63.0083 44.8404 62.8831 44.7151H62.7578V44.5898H65.0125V44.7151H64.8872C64.762 44.7151 64.5115 44.7151 64.5115 44.8404C64.3862 44.9656 64.3862 44.9656 64.3862 45.0909C64.3862 45.2162 64.3862 45.2162 64.3862 45.3414L65.8893 49.7255L67.1419 46.3435L66.7662 45.4667C66.6409 45.2161 66.6409 44.9656 66.5156 44.9656C66.3904 44.8404 66.2651 44.8404 66.1399 44.8404H66.0146V44.7151H68.3946V44.8404H68.2693C68.0188 44.8404 67.8935 44.9656 67.8935 44.9656C67.7682 44.9656 67.7683 45.0909 67.7683 45.2161C67.7683 45.3414 67.7683 45.3414 67.7683 45.4667L69.2714 49.8508L70.8998 45.4667C70.8998 45.3414 71.025 45.2161 71.025 45.2161C71.025 45.0909 71.025 44.9656 70.8998 44.9656C70.7745 44.9656 70.6493 44.8404 70.524 44.8404H70.3987V44.7151H71.9019V44.5898Z" fill="#211C1B"></path><path d="M79.7914 49.3495L79.6662 51.1032H74.9062V50.9779H75.0315C75.1568 50.9779 75.4073 50.8526 75.4073 50.8526C75.5326 50.7274 75.5326 50.7274 75.5326 50.4768V45.3411C75.5326 45.2159 75.5326 45.0906 75.4073 44.9654C75.282 44.8401 75.1568 44.8401 75.0315 44.8401H74.9062V44.7148H79.4156V46.218H79.2904C79.1651 45.8422 79.1651 45.5917 79.0399 45.4664C78.9146 45.2159 78.7893 45.0906 78.5388 45.0906C78.2883 44.9654 78.0378 44.9654 77.662 44.9654H76.4094V47.8464H77.1609C77.5367 47.8464 77.7872 47.7211 77.9125 47.5958C78.0378 47.4706 78.163 47.2201 78.2883 46.9695H78.4136V48.8485C78.2883 48.5979 78.163 48.3474 78.0378 48.2221C77.9125 48.0969 77.662 47.9716 77.2862 47.9716H76.5346V50.6021C76.5346 50.7274 76.5346 50.8526 76.6599 50.9779C76.7852 50.9779 76.9104 51.1032 77.1609 51.1032H77.7873C78.163 51.1032 78.5388 51.1032 78.7893 50.9779C79.0399 50.8526 79.1651 50.7274 79.4156 50.4768C79.4156 50.1011 79.5409 49.7253 79.7914 49.3495Z" fill="#211C1B"></path><path d="M88.9341 50.9782L87.5563 51.1034C87.5563 50.9782 87.431 50.9782 87.431 50.9782C87.0552 50.6024 86.93 50.2266 86.8047 50.1013L85.6774 48.4729C85.5521 48.2224 85.4268 48.2224 85.4268 48.0972C85.3016 48.0972 85.3016 47.9719 85.1763 47.9719H84.6753V50.3519C84.6753 50.4771 84.6753 50.6024 84.8005 50.7276C84.9258 50.8529 85.0511 50.8529 85.3016 50.8529H85.4268V50.9782H83.0469V50.8529H83.1721C83.2974 50.8529 83.5479 50.7276 83.5479 50.7276C83.6732 50.6024 83.6732 50.6024 83.6732 50.3519V45.2161C83.6732 45.0909 83.6732 44.9656 83.5479 44.8404C83.4227 44.7151 83.2974 44.7151 83.1721 44.7151H83.0469V44.5898H85.6774C86.0531 44.5898 86.4289 44.5898 86.6794 44.7151C87.0552 44.8404 87.3057 44.9656 87.431 45.2161C87.6815 45.4667 87.8068 45.7172 87.8068 46.2182C87.8068 46.7193 87.6815 47.0951 87.3057 47.3456C86.93 47.5961 86.6794 47.8466 86.1784 47.8466L87.431 49.6003C87.6815 49.9761 87.9321 50.3518 88.1826 50.4771C88.3078 50.6024 88.5584 50.7276 88.6836 50.8529L88.9341 50.9782ZM85.4268 47.8466C86.4289 47.8466 86.93 47.3456 86.93 46.3435C86.93 45.8425 86.8047 45.3414 86.4289 45.2161C86.1784 44.9656 85.8026 44.8404 85.3016 44.8404H84.6753V47.8466H85.4268Z" fill="#211C1B"></path><path d="M92.8149 51.1034C92.4391 50.9782 92.0633 50.8529 91.8128 50.7276V48.8487H91.938C92.0633 49.475 92.3138 50.1013 92.5643 50.4771C92.9401 50.8529 93.3159 51.1034 93.9422 51.1034C94.318 51.1034 94.6938 50.9782 94.9443 50.7276C95.1948 50.4771 95.3201 50.1013 95.3201 49.7255C95.3201 49.3498 95.1948 49.0992 94.9443 48.8487C94.6938 48.5982 94.318 48.4729 93.8169 48.2224L93.4412 48.0972C92.8149 47.8466 92.4391 47.5961 92.0633 47.3456C91.6875 47.0951 91.6875 46.7193 91.6875 46.3435C91.6875 45.9677 91.8128 45.7172 91.938 45.4667C92.0633 45.2161 92.3138 44.9656 92.6896 44.8404C93.0654 44.7151 93.3159 44.5898 93.6917 44.5898C94.0675 44.5898 94.318 44.5898 94.6938 44.7151C94.9443 44.8404 95.1948 44.8404 95.5706 44.9656V46.594H95.4453C95.3201 45.9677 95.0695 45.5919 94.819 45.2161C94.5685 44.8404 94.1927 44.8404 93.6917 44.8404C93.3159 44.8404 92.9401 44.9656 92.6896 45.2161C92.4391 45.4667 92.3138 45.7172 92.3138 46.093C92.3138 46.4688 92.4391 46.7193 92.6896 46.8445C92.9401 47.0951 93.3159 47.2203 93.8169 47.4708L94.1927 47.5961C94.819 47.8466 95.3201 48.0972 95.5706 48.3477C95.8211 48.5982 95.9464 48.974 95.9464 49.475C95.9464 49.8508 95.8211 50.1013 95.6959 50.4771C95.5706 50.7276 95.1948 50.9782 94.9443 51.2287C94.5685 51.3539 94.1927 51.4792 93.8169 51.4792C93.6917 51.2287 93.3159 51.2287 92.8149 51.1034Z" fill="#211C1B"></path></g><defs><clipPath id="clip0_829_465"><rect width="170" height="60" fill="white"></rect></clipPath></defs></svg>