<svg width="121" height="48" viewBox="0 0 121 48" fill="none" xmlns="http://www.w3.org/2000/svg">
<path d="M54.23 39.3C51.83 39.3 49.76 38.87 48.02 38.01C46.28 37.15 44.95 35.91 44.03 34.29C43.11 32.65 42.65 30.69 42.65 28.41C42.65 26.17 43.11 24.25 44.03 22.65C44.95 21.03 46.28 19.8 48.02 18.96C49.76 18.12 51.83 17.7 54.23 17.7C56.63 17.7 58.7 18.12 60.44 18.96C62.18 19.8 63.51 21.03 64.43 22.65C65.35 24.25 65.81 26.17 65.81 28.41C65.81 30.69 65.35 32.65 64.43 34.29C63.51 35.91 62.18 37.15 60.44 38.01C58.7 38.87 56.63 39.3 54.23 39.3ZM54.23 37.71C56.73 37.71 58.65 36.91 59.99 35.31C61.33 33.69 62 31.39 62 28.41C62 25.47 61.33 23.22 59.99 21.66C58.65 20.08 56.73 19.29 54.23 19.29C51.73 19.29 49.81 20.08 48.47 21.66C47.13 23.22 46.46 25.47 46.46 28.41C46.46 31.39 47.13 33.69 48.47 35.31C49.81 36.91 51.73 37.71 54.23 37.71ZM70.2751 18.51H73.6051V39H70.2751V18.51ZM80.7699 22.59C80.0899 22.59 79.5299 22.4 79.0899 22.02C78.6699 21.62 78.4599 21.11 78.4599 20.49C78.4599 19.87 78.6699 19.37 79.0899 18.99C79.5299 18.59 80.0899 18.39 80.7699 18.39C81.4499 18.39 81.9999 18.59 82.4199 18.99C82.8599 19.37 83.0799 19.87 83.0799 20.49C83.0799 21.11 82.8599 21.62 82.4199 22.02C81.9999 22.4 81.4499 22.59 80.7699 22.59ZM79.1199 24.3H82.4199V39H79.1199V24.3ZM85.3311 24.3H88.8711L94.7811 35.73L100.601 24.3H102.551L95.0511 39.3H93.2811L85.3311 24.3ZM109.386 39.3C107.366 39.3 105.836 38.91 104.796 38.13C103.776 37.35 103.266 36.24 103.266 34.8C103.266 33.26 103.876 32.09 105.096 31.29C106.336 30.47 108.136 30.06 110.496 30.06H114.726V29.01C114.726 27.83 114.376 26.93 113.676 26.31C112.976 25.67 111.966 25.35 110.646 25.35C109.386 25.35 108.376 25.65 107.616 26.25C106.856 26.85 106.406 27.71 106.266 28.83H103.746C103.946 27.27 104.666 26.08 105.906 25.26C107.146 24.42 108.806 24 110.886 24C113.206 24 114.976 24.46 116.196 25.38C117.416 26.3 118.026 27.62 118.026 29.34V34.14C118.026 35.9 118.176 37.52 118.476 39H115.386C115.166 38.12 115.026 37.32 114.966 36.6C114.366 37.52 113.586 38.2 112.626 38.64C111.666 39.08 110.586 39.3 109.386 39.3ZM110.136 38.01C111.476 38.01 112.576 37.59 113.436 36.75C114.296 35.91 114.726 34.86 114.726 33.6V31.38H111.426C108.186 31.38 106.566 32.51 106.566 34.77C106.566 35.85 106.866 36.66 107.466 37.2C108.086 37.74 108.976 38.01 110.136 38.01Z" fill="#211C1B"/>
<g clip-path="url(#clip0_10_3250)">
<path fill-rule="evenodd" clip-rule="evenodd" d="M4.90603 33.6707C4.75777 39.4157 8.18121 44.6543 13.5185 46.8936C18.8559 49.133 25.0558 47.9067 29.1127 43.8012C13.3298 50.1861 7.12991 36.7765 15.7694 26.4193C20.4328 20.8209 25.9993 19.9545 23.5193 9.57068C22.2523 23.9134 5.31037 18.115 4.90603 33.6707ZM20.4328 9.51736C17.3733 8.06443 15.082 3.75896 16.8072 0C20.3654 1.54624 22.5219 5.59844 21.4437 9.87726C21.4032 7.29131 20.1902 4.85199 18.1415 3.2391C19.4489 5.10525 20.2441 7.26465 20.4328 9.51736ZM20.6484 12.0233C18.0202 18.6082 7.70947 23.2335 0 18.4749C3.693 12.4232 11.4294 9.26409 19.1119 11.5035C15.5268 14.9692 10.7151 16.9153 5.68776 16.9153C11.1868 17.995 16.8746 16.1289 20.6484 12.0233ZM7.97903 9.46404C6.41557 7.82449 5.2295 5.81172 4.6769 3.42572C7.76338 2.67926 10.9981 2.8792 13.9768 3.94557C14.125 5.07859 14.489 6.18495 15.0281 7.21133L15.1224 7.38462C12.7772 6.46487 10.3512 5.70508 7.88469 5.13191C10.3377 6.18495 12.7503 7.30464 15.1359 8.5043C12.6829 8.39767 10.2568 8.71758 7.97903 9.46404ZM32.7922 23.2869C34.5983 24.6731 35.6765 26.7659 35.7574 29.0186C35.9326 27.9656 36.0135 26.8859 36 25.8062C35.8787 19.0214 31.8892 12.8898 25.7027 9.97056C27.6571 12.7165 28.277 16.1955 27.374 19.4479C26.6192 21.4474 27.1314 23.5401 28.9105 25.7395C29.3553 26.446 29.207 26.9259 28.4657 27.1658C28.4657 27.1658 27.9805 27.4191 27.0236 27.9256C26.7945 28.0722 26.6327 28.3121 26.6192 28.5921C26.6058 28.872 26.7271 29.1252 26.9427 29.2985C27.1314 29.4985 27.091 29.8984 26.9562 30.125C26.6462 30.6582 25.9049 30.2583 24.7458 30.5249C24.948 30.8981 25.8375 31.0047 26.134 31.6312C26.3766 32.1377 25.568 32.6043 25.0154 32.7376C24.5975 33.3241 24.1662 33.9506 24.0854 34.657C24.0314 35.1102 23.9775 35.5635 23.6001 35.8434C23.2362 36.1233 22.7376 36.1633 22.3197 35.9767C18.3976 33.724 14.5429 38.8692 20.4463 42.0816C28.3983 46.3871 36.5796 33.5374 32.7922 23.2869Z" fill="#B36F48"/>
</g>
<defs>
<clipPath id="clip0_10_3250">
<rect width="36" height="48" fill="white"/>
</clipPath>
</defs>
</svg>
